<svg xmlns="http://www.w3.org/2000/svg" width="18.468" height="18.469" viewBox="0 0 18.468 18.469">
  <g id="ea6899398124113c2cb3219d5dddbc8c" transform="translate(-2 -2)">
    <path id="Path_15523" data-name="Path 15523" d="M11.234,2a9.234,9.234,0,1,0,9.234,9.234A9.245,9.245,0,0,0,11.234,2Zm0,16.789a7.555,7.555,0,1,1,7.555-7.555A7.561,7.561,0,0,1,11.234,18.789Z" fill="#fff"/>
    <path id="Path_15524" data-name="Path 15524" d="M16.716,15.037v-4.2a.839.839,0,1,0-1.679,0v4.2h-4.2a.839.839,0,1,0,0,1.679h4.2v4.2a.839.839,0,0,0,1.679,0v-4.2h4.2a.839.839,0,0,0,0-1.679Z" transform="translate(-4.642 -4.642)" fill="#fff"/>
  </g>
</svg>
