<svg xmlns="http://www.w3.org/2000/svg" width="22" height="22" viewBox="0 0 22 22">
  <g id="_5509d2d5a007b89038f8fb24605f8e42" data-name="5509d2d5a007b89038f8fb24605f8e42" transform="translate(-17.262 -16.462)">
    <path id="Path_15520" data-name="Path 15520" d="M29.648,36.566l-1-.988L26.275,33.22l-2.887-2.864-2.482-2.462c-.4-.4-.8-.8-1.209-1.2l-.018-.018v1.57l1-.988L23.053,24.9l2.887-2.864,2.482-2.462c.4-.4.81-.795,1.208-1.2l.018-.018a1.11,1.11,0,0,0-.792-1.9,1.18,1.18,0,0,0-.792.324l-1,.988-2.377,2.358L21.8,23l-2.482,2.462c-.4.4-.81.795-1.209,1.2l-.018.018a1.121,1.121,0,0,0,0,1.57c.333.333.667.662,1,.992l2.377,2.358,2.887,2.864,2.482,2.462c.4.4.8.8,1.209,1.2l.018.018a1.13,1.13,0,0,0,1.584,0,1.113,1.113,0,0,0,.327-.786,1.164,1.164,0,0,0-.329-.786Z" transform="translate(-0.502 0)" fill="#222939"/>
    <path id="Path_15521" data-name="Path 15521" d="M18.374,464.195H37.346c.256,0,.514,0,.769,0h.033a1.154,1.154,0,0,0,.787-.327,1.129,1.129,0,0,0,0-1.584,1.149,1.149,0,0,0-.787-.327H19.177c-.256,0-.514,0-.769,0h-.033a1.154,1.154,0,0,0-.787.327,1.129,1.129,0,0,0,0,1.584,1.168,1.168,0,0,0,.787.327Z" transform="translate(0 -435.612)" fill="#222939"/>
  </g>
</svg>
