<svg xmlns="http://www.w3.org/2000/svg" width="27.846" height="27.846" viewBox="0 0 27.846 27.846">
  <g id="a0bf1b4ad9fbc07d3dc4d5026c887dd3" transform="translate(-2 -2)">
    <path id="Path_70" data-name="Path 70" d="M15.923,29.846A13.923,13.923,0,1,0,2,15.923,13.923,13.923,0,0,0,15.923,29.846Zm0-25.857A11.934,11.934,0,1,1,3.989,15.923,11.934,11.934,0,0,1,15.923,3.989Z" fill="#4a5878"/>
    <path id="Path_71" data-name="Path 71" d="M9.288,22.635a.994.994,0,0,0,1.4,0l5.271-5.271,5.261,5.261a.994.994,0,0,0,1.4-1.4l-5.261-5.261L22.625,10.7a.994.994,0,0,0-1.4-1.4L15.961,14.56,10.7,9.289a.994.994,0,0,0-1.4,1.4l5.261,5.271L9.288,21.223a.994.994,0,0,0,0,1.412Z" transform="translate(-0.038 -0.039)" fill="#4a5878"/>
  </g>
</svg>
