<svg id="_6f9a249c6e61758d4b77067cd1b64165" data-name="6f9a249c6e61758d4b77067cd1b64165" xmlns="http://www.w3.org/2000/svg" width="16" height="16" viewBox="0 0 16 16">
  <path id="Path_15350" data-name="Path 15350" d="M0,0H16V16H0Z" fill="none"/>
  <path id="Path_15351" data-name="Path 15351" d="M3,12.639v2.027A.33.33,0,0,0,3.333,15H5.36a.313.313,0,0,0,.233-.1l7.28-7.273-2.5-2.5L3.1,12.4a.327.327,0,0,0-.1.24ZM14.807,5.693a.664.664,0,0,0,0-.94l-1.56-1.56a.664.664,0,0,0-.94,0l-1.22,1.22,2.5,2.5,1.22-1.22Z" transform="translate(-1 -0.999)" fill="#707070"/>
</svg>
