<svg xmlns="http://www.w3.org/2000/svg" width="100" height="100" viewBox="0 0 100 100">
  <g id="Group_11666" data-name="Group 11666" transform="translate(-1516 -174)">
    <g id="Group_11622" data-name="Group 11622" transform="translate(46)">
      <g id="Ellipse_549" data-name="Ellipse 549" transform="translate(1470 174)" fill="#fff" stroke="#d4be6a" stroke-width="2">
        <circle cx="50" cy="50" r="50" stroke="none"/>
        <circle cx="50" cy="50" r="49" fill="none"/>
      </g>
      <g id="_3f54b5330e8ba1872cf536b840a0105e" data-name="3f54b5330e8ba1872cf536b840a0105e" transform="translate(1490 192)">
        <path id="Path_15306" data-name="Path 15306" d="M45.649,10.13v7.737L40.22,17.6l-.271-5.565c0-2.308.814-4.751-1.493-4.751H19.994a4.229,4.229,0,0,0-4.208,4.208V18H12.8V10.13A5.446,5.446,0,0,1,18.23,4.7H40.22A5.446,5.446,0,0,1,45.649,10.13Z" transform="translate(1.86 -1.035)" fill="#c5c5c5"/>
        <path id="Path_15307" data-name="Path 15307" d="M8.815,17.8A2.723,2.723,0,0,0,6.1,20.515V54.857H56.324a2.723,2.723,0,0,0,2.715-2.715V17.8ZM34.063,29.474a6.792,6.792,0,0,1,3.258,5.7,6.67,6.67,0,0,1-3.122,5.7V47.12a3.65,3.65,0,0,1-3.665,3.665H30.4Z" transform="translate(-0.535 3.647)" fill="#d2bb67"/>
        <path id="Path_15308" data-name="Path 15308" d="M31.967,32.237a6.67,6.67,0,0,1-3.122,5.7v6.244a3.65,3.65,0,0,1-3.665,3.665h-.136a3.417,3.417,0,0,1-1.222-2.715V38.888a6.67,6.67,0,0,1-3.122-5.7A6.807,6.807,0,0,1,27.487,26.4a4.618,4.618,0,0,1,1.357.136A6.5,6.5,0,0,1,31.967,32.237Z" transform="translate(4.684 6.721)" fill="#8f7929"/>
        <path id="Path_15309" data-name="Path 15309" d="M27.773,26.5a6.979,6.979,0,0,1,1.357,4.072,6.67,6.67,0,0,1-3.122,5.7v6.244a3.65,3.65,0,0,1-3.665,3.665H21.8a3.7,3.7,0,0,0,3.394,2.308,3.65,3.65,0,0,0,3.665-3.665V38.581A6.862,6.862,0,0,0,27.773,26.5Z" transform="translate(5.077 6.757)" fill="#655721"/>
        <path id="Path_15310" data-name="Path 15310" d="M56.224,17.8H54.46V49.428a2.433,2.433,0,0,1-2.443,2.443H6v.679a2.433,2.433,0,0,0,2.443,2.443H56.224a2.433,2.433,0,0,0,2.443-2.443V20.243A2.352,2.352,0,0,0,56.224,17.8Z" transform="translate(-0.57 3.647)" fill="#8f7a2d"/>
        <path id="Path_15314" data-name="Path 15314" d="M8.957,39.924A1.282,1.282,0,0,1,7.6,38.566V30.557A1.282,1.282,0,0,1,8.957,29.2a1.282,1.282,0,0,1,1.357,1.357v8.009A1.36,1.36,0,0,1,8.957,39.924Z" transform="translate(0.002 7.722)" fill="#fff"/>
        <circle id="Ellipse_546" data-name="Ellipse 546" cx="1.357" cy="1.357" r="1.357" transform="translate(7.466 50.089)" fill="#fff"/>
        <g id="Group_11621" data-name="Group 11621" transform="translate(0 0)">
          <path id="Path_15311" data-name="Path 15311" d="M42.179,57.609H36.207a1.357,1.357,0,0,1,0-2.715h5.973a1.357,1.357,0,0,1,0,2.715Zm15.475,0H49.781a1.357,1.357,0,1,1,0-2.715h7.873a1.282,1.282,0,0,0,1.357-1.357V17.972a1.282,1.282,0,0,0-1.357-1.357H6.072a1.282,1.282,0,0,0-1.357,1.357A1.282,1.282,0,0,1,3.357,19.33,1.282,1.282,0,0,1,2,17.972,4,4,0,0,1,6.072,13.9H57.654a4,4,0,0,1,4.072,4.072V53.536A4.084,4.084,0,0,1,57.654,57.609Zm-28.777,0H6.072A4,4,0,0,1,2,53.536V27.61a1.282,1.282,0,0,1,1.357-1.357A1.282,1.282,0,0,1,4.715,27.61V53.536a1.282,1.282,0,0,0,1.357,1.357h22.8a1.357,1.357,0,0,1,0,2.715Z" transform="translate(-2 2.253)" fill="#222939"/>
          <path id="Path_15312" data-name="Path 15312" d="M46.786,20.6H11.357A1.282,1.282,0,0,1,10,19.239V10.144A8.168,8.168,0,0,1,18.144,2,1.282,1.282,0,0,1,19.5,3.357a1.282,1.282,0,0,1-1.357,1.357,5.446,5.446,0,0,0-5.43,5.43v7.737H45.564V10.144a5.446,5.446,0,0,0-5.43-5.43h-11.4a1.282,1.282,0,0,1-1.357-1.357A1.282,1.282,0,0,1,28.732,2h11.4a8.168,8.168,0,0,1,8.144,8.144v9.095A1.48,1.48,0,0,1,46.786,20.6Z" transform="translate(0.859 -2)" fill="#222939"/>
          <path id="Path_15313" data-name="Path 15313" d="M39.619,19.338H15.457A1.282,1.282,0,0,1,14.1,17.981V10.108A4.229,4.229,0,0,1,18.308,5.9H36.769a4.229,4.229,0,0,1,4.208,4.208v8.009A1.253,1.253,0,0,1,39.619,19.338Zm-22.8-2.715H38.262V10.108a1.506,1.506,0,0,0-1.493-1.493H18.308a1.506,1.506,0,0,0-1.493,1.493ZM27.538,56.532a5.1,5.1,0,0,1-5.022-5.022V45.944c-.271-.271-.543-.407-.814-.679a1.344,1.344,0,1,1,1.9-1.9,5.9,5.9,0,0,0,.95.814,1.384,1.384,0,0,1,.679,1.086v6.244a2.308,2.308,0,0,0,4.615,0V45.265a1.209,1.209,0,0,1,.679-1.086A5.3,5.3,0,0,0,33.1,39.564a5.43,5.43,0,0,0-10.859,0,1.357,1.357,0,1,1-2.715,0A8.145,8.145,0,1,1,32.7,45.944v5.565A5.316,5.316,0,0,1,27.538,56.532Z" transform="translate(2.325 -0.606)" fill="#222939"/>
          <circle id="Ellipse_547" data-name="Ellipse 547" cx="1.357" cy="1.357" r="1.357" transform="translate(0 23.755)" fill="#222939"/>
          <g id="Group_11333" data-name="Group 11333" transform="translate(22.262)">
            <circle id="Ellipse_548" data-name="Ellipse 548" cx="1.357" cy="1.357" r="1.357" fill="#222939"/>
          </g>
        </g>
      </g>
    </g>
    <path id="Path_15522" data-name="Path 15522" d="M1579.906,176.955c-6.01,2.226-50.3,80.13-50.3,80.13s8.013,9.794,18.252,12.242c3.561-5.565,49.859-83.024,49.859-83.024S1586.584,178.29,1579.906,176.955Z" fill="#fff" opacity="0.2"/>
  </g>
</svg>
