<svg xmlns="http://www.w3.org/2000/svg" xmlns:xlink="http://www.w3.org/1999/xlink" width="236.832" height="243.74" viewBox="0 0 236.832 243.74">
  <defs>
    <linearGradient id="linear-gradient" x1="-9.378" y1="5.543" x2="-9.368" y2="5.543" gradientUnits="objectBoundingBox">
      <stop offset="0" stop-color="#e5d57d"/>
      <stop offset="0.5" stop-color="#c3a656"/>
      <stop offset="1" stop-color="#e5d57d"/>
    </linearGradient>
    <linearGradient id="linear-gradient-2" x1="-29.889" y1="22.061" x2="-29.852" y2="22.061" xlink:href="#linear-gradient"/>
    <linearGradient id="linear-gradient-3" x1="-24.593" y1="21.573" x2="-24.564" y2="21.573" xlink:href="#linear-gradient"/>
    <linearGradient id="linear-gradient-4" x1="-34.319" y1="22.061" x2="-34.28" y2="22.061" xlink:href="#linear-gradient"/>
    <linearGradient id="linear-gradient-5" x1="-34.982" y1="21.839" x2="-34.944" y2="21.839" xlink:href="#linear-gradient"/>
    <linearGradient id="linear-gradient-6" x1="-40.542" y1="21.559" x2="-40.5" y2="21.559" xlink:href="#linear-gradient"/>
    <linearGradient id="linear-gradient-7" x1="-32.582" y1="22.023" x2="-32.549" y2="22.023" xlink:href="#linear-gradient"/>
    <linearGradient id="linear-gradient-8" x1="-169.952" y1="22.061" x2="-169.772" y2="22.061" xlink:href="#linear-gradient"/>
    <linearGradient id="linear-gradient-9" x1="-48.803" y1="42.81" x2="-48.741" y2="42.81" xlink:href="#linear-gradient"/>
    <linearGradient id="linear-gradient-10" x1="-88.574" y1="43.617" x2="-88.46" y2="43.617" xlink:href="#linear-gradient"/>
    <linearGradient id="linear-gradient-11" x1="-63.583" y1="43.617" x2="-63.505" y2="43.617" xlink:href="#linear-gradient"/>
    <linearGradient id="linear-gradient-12" x1="-92.349" y1="43.617" x2="-92.236" y2="43.617" xlink:href="#linear-gradient"/>
    <linearGradient id="linear-gradient-13" x1="-75.476" y1="43.669" x2="-75.387" y2="43.669" xlink:href="#linear-gradient"/>
    <linearGradient id="linear-gradient-14" x1="-61.08" y1="43.93" x2="-61.01" y2="43.93" xlink:href="#linear-gradient"/>
    <linearGradient id="linear-gradient-15" x1="-108.504" y1="43.681" x2="-108.377" y2="43.681" xlink:href="#linear-gradient"/>
    <linearGradient id="linear-gradient-16" x1="-81.025" y1="43.681" x2="-80.935" y2="43.681" xlink:href="#linear-gradient"/>
    <linearGradient id="linear-gradient-17" x1="-81.825" y1="43.669" x2="-81.735" y2="43.669" xlink:href="#linear-gradient"/>
    <linearGradient id="linear-gradient-18" x1="-66.046" y1="43.93" x2="-65.976" y2="43.93" xlink:href="#linear-gradient"/>
    <linearGradient id="linear-gradient-19" x1="-69.707" y1="43.674" x2="-69.634" y2="43.674" xlink:href="#linear-gradient"/>
    <linearGradient id="linear-gradient-20" x1="-335.886" y1="43.681" x2="-335.417" y2="43.681" xlink:href="#linear-gradient"/>
    <linearGradient id="linear-gradient-21" x1="-76.462" y1="43.617" x2="-76.384" y2="43.617" xlink:href="#linear-gradient"/>
    <linearGradient id="linear-gradient-22" x1="-62.338" y1="42.813" x2="-62.277" y2="42.813" xlink:href="#linear-gradient"/>
  </defs>
  <g id="Group_11668" data-name="Group 11668" transform="translate(-807.059 -18.28)">
    <g id="Group_1" data-name="Group 1">
      <path id="Path_1" data-name="Path 1" d="M888.048,153.348V53l10.3-5.949V159.3Zm42.673-67.091V22.41l-5.15-2.975-5.154,2.975V86.262Zm-10.3,11.761h-11.76V29.2l-10.306,5.949L888.048,41.1l-10.3,5.949V159.3l10.3,5.947,10.3,5.949,10.3,5.949v-68.82h33.827v68.822l10.3-5.949,10.3-5.949,10.3-5.949V47.048l-10.3-5.949L952.79,35.148,942.49,29.2V98.022H920.419Zm0,22.066v63.851l5.152,2.974,5.152-2.974V120.088Zm42.673,33.264V53l-10.3-5.949V159.3l10.3-5.949Z" fill-rule="evenodd" fill="url(#linear-gradient)"/>
    </g>
    <g id="Group_5" data-name="Group 5">
      <g id="Group_4" data-name="Group 4">
        <path id="Path_2" data-name="Path 2" d="M829.674,204.527v14.544H813.712V204.527h-5.567v33.922h5.567V223.612h15.962v14.837h5.562V204.527Z" fill="url(#linear-gradient-2)"/>
        <path id="Path_3" data-name="Path 3" d="M877.947,212.484a16.4,16.4,0,0,0-6.271-6.177,18.307,18.307,0,0,0-17.479,0,16.522,16.522,0,0,0-6.3,6.177,18.4,18.4,0,0,0,0,17.885,16.477,16.477,0,0,0,6.3,6.2,18.307,18.307,0,0,0,17.479,0,16.347,16.347,0,0,0,6.271-6.2A18.57,18.57,0,0,0,877.947,212.484Zm-4.908,15.546a10.642,10.642,0,0,1-4.125,4.392,12.493,12.493,0,0,1-12.006,0,10.642,10.642,0,0,1-4.125-4.392,14.125,14.125,0,0,1-1.487-6.618,13.98,13.98,0,0,1,1.487-6.588,10.518,10.518,0,0,1,4.125-4.342,12.673,12.673,0,0,1,12.006,0,10.518,10.518,0,0,1,4.125,4.342,13.98,13.98,0,0,1,1.492,6.588,14.124,14.124,0,0,1-1.491,6.617Z" fill="url(#linear-gradient-3)"/>
        <path id="Path_4" data-name="Path 4" d="M901.568,221.51l14.742-16.983h-6.98L896.149,220V204.527h-5.562v33.922h5.562V223.27l13.132,15.179h7.272Z" fill="url(#linear-gradient-4)"/>
        <path id="Path_5" data-name="Path 5" d="M947.258,204.527V226.15q0,3.852-2.027,5.8a9.181,9.181,0,0,1-11.322,0q-2.029-1.948-2.027-5.8V204.527H926.32v21.524a13.259,13.259,0,0,0,1.755,7.029,10.913,10.913,0,0,0,4.759,4.293,16.415,16.415,0,0,0,13.349,0,11.2,11.2,0,0,0,4.833-4.293,12.964,12.964,0,0,0,1.8-7.029V204.527Z" fill="url(#linear-gradient-5)"/>
        <path id="Path_6" data-name="Path 6" d="M986.331,223.682a9.158,9.158,0,0,0-3.614-2.855,42.53,42.53,0,0,0-5.493-1.854,37.375,37.375,0,0,1-4-1.269,6.684,6.684,0,0,1-2.414-1.586,3.562,3.562,0,0,1-.952-2.563,4.249,4.249,0,0,1,1.512-3.515,6.028,6.028,0,0,1,3.906-1.22,6.493,6.493,0,0,1,4.243,1.319,4.459,4.459,0,0,1,1.76,3.173h6.147a9.092,9.092,0,0,0-3.49-6.762,12.72,12.72,0,0,0-8.076-2.464,14.951,14.951,0,0,0-6.1,1.17,9.347,9.347,0,0,0-4.1,3.371,9.014,9.014,0,0,0-1.467,5.126,8.113,8.113,0,0,0,1.467,5.076,8.941,8.941,0,0,0,3.539,2.806,38.743,38.743,0,0,0,5.394,1.78,37.763,37.763,0,0,1,4.124,1.269,6.756,6.756,0,0,1,2.488,1.661,3.933,3.933,0,0,1,1,2.781,4.515,4.515,0,0,1-1.611,3.589,6.66,6.66,0,0,1-4.491,1.393,6.138,6.138,0,0,1-4.318-1.418,5.359,5.359,0,0,1-1.735-3.614H964.1a8.608,8.608,0,0,0,1.562,5.126,10.086,10.086,0,0,0,4.293,3.4A15.178,15.178,0,0,0,976.1,238.8a13.347,13.347,0,0,0,6.271-1.393,10.077,10.077,0,0,0,4.055-3.683,9.268,9.268,0,0,0,1.388-4.883A8.225,8.225,0,0,0,986.331,223.682Z" fill="url(#linear-gradient-6)"/>
        <path id="Path_7" data-name="Path 7" d="M1016.279,204.555h-6.444L997.68,238.526h5.81l.847-2.4.526-1.5,2.647-7.57h-.015l1.71-4.838.421-1.2,3.43-9.726,3.4,9.726.362,1.041,1.75,5h0l3.049,8.754.174.5.783,2.221h5.86Z" fill="url(#linear-gradient-7)"/>
        <path id="Path_8" data-name="Path 8" d="M1038.192,204.527v33.922h5.562V204.527Z" fill="url(#linear-gradient-8)"/>
      </g>
    </g>
    <g id="Group_8" data-name="Group 8">
      <g id="Group_7" data-name="Group 7">
        <path id="Path_15732" data-name="Path 15732" d="M835.372,239.17h-6.561V224.333H813.849V239.17h-6.568V204.248h6.568v14.544h14.962V204.248h6.561Zm-5.561-1h4.561V205.248h-4.561v14.544H812.849V205.248h-4.568V238.17h4.568V223.333h16.962Z" fill="#707070"/>
        <path id="Path_15733" data-name="Path 15733" d="M862.571,239.519a18.789,18.789,0,0,1-8.976-2.29,16.988,16.988,0,0,1-6.495-6.391,18.787,18.787,0,0,1,0-18.377,17.035,17.035,0,0,1,6.494-6.37,18.74,18.74,0,0,1,17.96,0,16.9,16.9,0,0,1,6.466,6.366l0,.008a18.977,18.977,0,0,1,0,18.367,16.835,16.835,0,0,1-6.466,6.4A18.792,18.792,0,0,1,862.571,239.519Zm0-34.721a17.785,17.785,0,0,0-8.5,2.17,16.034,16.034,0,0,0-6.1,5.987,17.788,17.788,0,0,0,0,17.391,15.973,15.973,0,0,0,6.105,6.006,17.743,17.743,0,0,0,17,0,15.834,15.834,0,0,0,6.074-6.008,17.979,17.979,0,0,0,0-17.393,15.888,15.888,0,0,0-6.077-5.983A17.776,17.776,0,0,0,862.574,204.8Zm-.03,29.887a12.977,12.977,0,0,1-6.24-1.6,11.125,11.125,0,0,1-4.331-4.606,14.669,14.669,0,0,1-1.54-6.853,14.484,14.484,0,0,1,1.54-6.8,10.974,10.974,0,0,1,4.322-4.552,13.145,13.145,0,0,1,12.492-.007,10.985,10.985,0,0,1,4.333,4.557,14.5,14.5,0,0,1,1.547,6.825,14.667,14.667,0,0,1-1.543,6.831h0a11.124,11.124,0,0,1-4.318,4.6A13.024,13.024,0,0,1,862.544,234.685Zm.007-25a12.175,12.175,0,0,0-5.771,1.457,9.98,9.98,0,0,0-3.916,4.129,13.518,13.518,0,0,0-1.431,6.35,13.7,13.7,0,0,0,1.433,6.4,10.106,10.106,0,0,0,3.931,4.184,11.939,11.939,0,0,0,11.513-.006,10.107,10.107,0,0,0,3.918-4.178h0a14.859,14.859,0,0,0,0-12.756,9.977,9.977,0,0,0-3.928-4.135A12.124,12.124,0,0,0,862.551,209.685Z" fill="#707070"/>
        <path id="Path_15734" data-name="Path 15734" d="M917.3,239.17h-8.612l-12.4-14.337V239.17h-6.561V204.248h6.561v14.613l12.45-14.613h8.307l-15.173,17.48Zm-8.154-1h5.933l-14.54-16.436,14.312-16.486H909.2l-13.911,16.329V205.248h-4.561V238.17h4.561V222.149Z" fill="#707070"/>
        <path id="Path_15735" data-name="Path 15735" d="M939.143,239.509a16.908,16.908,0,0,1-6.875-1.458,11.383,11.383,0,0,1-4.986-4.493,13.771,13.771,0,0,1-1.826-7.3V204.248h6.563v22.123a7.227,7.227,0,0,0,1.872,5.439,8.657,8.657,0,0,0,10.668-.033,7.257,7.257,0,0,0,1.836-5.406V204.248h6.557v22.024a13.431,13.431,0,0,1-1.869,7.284,11.678,11.678,0,0,1-5.054,4.492A16.943,16.943,0,0,1,939.143,239.509Zm-12.687-34.261v21.024a12.783,12.783,0,0,0,1.689,6.78,10.362,10.362,0,0,0,4.537,4.089,15.942,15.942,0,0,0,12.934,0,10.671,10.671,0,0,0,4.611-4.1,12.435,12.435,0,0,0,1.725-6.75V205.248H947.4v21.123a8.194,8.194,0,0,1-2.181,6.16,9.673,9.673,0,0,1-11.978.033,8.174,8.174,0,0,1-2.217-6.193V205.248Z" fill="#707070"/>
        <path id="Path_15736" data-name="Path 15736" d="M976.06,239.521c-.111,0-.221,0-.331,0a15.74,15.74,0,0,1-6.335-1.234,10.586,10.586,0,0,1-4.5-3.568,9.068,9.068,0,0,1-1.657-5.429l.011-.49h6.911l.031.468a4.841,4.841,0,0,0,1.572,3.277,5.594,5.594,0,0,0,3.95,1.288,6.247,6.247,0,0,0,4.216-1.288,3.989,3.989,0,0,0,1.417-3.18,3.448,3.448,0,0,0-.872-2.463,6.287,6.287,0,0,0-2.294-1.526,37.527,37.527,0,0,0-4.065-1.25,39.383,39.383,0,0,1-5.466-1.8,9.472,9.472,0,0,1-3.748-2.967,8.665,8.665,0,0,1-1.566-5.4,9.438,9.438,0,0,1,1.547-5.374,9.82,9.82,0,0,1,4.325-3.558,15.209,15.209,0,0,1,6.3-1.21,13.224,13.224,0,0,1,8.363,2.561,9.587,9.587,0,0,1,3.693,7.142l.023.522h-7.128l-.04-.456a3.958,3.958,0,0,0-1.563-2.816,5.977,5.977,0,0,0-3.917-1.219,5.6,5.6,0,0,0-3.629,1.118,3.755,3.755,0,0,0-1.315,3.086,3.132,3.132,0,0,0,.819,2.253,6.246,6.246,0,0,0,2.226,1.459,37.177,37.177,0,0,0,3.946,1.252,43.217,43.217,0,0,1,5.561,1.876,9.676,9.676,0,0,1,3.82,3.016l.011.014a8.76,8.76,0,0,1,1.577,5.47,9.72,9.72,0,0,1-1.462,5.119,10.577,10.577,0,0,1-4.257,3.868A13.924,13.924,0,0,1,976.06,239.521Zm-.328-1a13,13,0,0,0,6.057-1.341,9.583,9.583,0,0,0,3.854-3.5,8.757,8.757,0,0,0,1.311-4.616,7.779,7.779,0,0,0-1.392-4.863,8.662,8.662,0,0,0-3.41-2.692,42.029,42.029,0,0,0-5.419-1.828,38.3,38.3,0,0,1-4.05-1.285,7.261,7.261,0,0,1-2.595-1.7,4.1,4.1,0,0,1-1.094-2.932,4.733,4.733,0,0,1,1.691-3.879,6.512,6.512,0,0,1,4.249-1.335,6.934,6.934,0,0,1,4.524,1.42,4.967,4.967,0,0,1,1.894,3.07h5.171a8.583,8.583,0,0,0-3.258-5.867,12.278,12.278,0,0,0-7.747-2.358,14.388,14.388,0,0,0-5.927,1.131,8.824,8.824,0,0,0-3.881,3.19,8.478,8.478,0,0,0-1.381,4.835,7.689,7.689,0,0,0,1.376,4.8,8.454,8.454,0,0,0,3.331,2.635,38.136,38.136,0,0,0,5.315,1.753,38.449,38.449,0,0,1,4.176,1.286,7.267,7.267,0,0,1,2.676,1.784,4.418,4.418,0,0,1,1.138,3.145,4.966,4.966,0,0,1-1.789,3.952,7.13,7.13,0,0,1-4.843,1.509,6.529,6.529,0,0,1-4.608-1.533,5.851,5.851,0,0,1-1.865-3.5h-5a8.067,8.067,0,0,0,1.467,4.339,9.594,9.594,0,0,0,4.076,3.226A14.446,14.446,0,0,0,975.732,238.517Z" fill="#707070"/>
        <path id="Path_15737" data-name="Path 15737" d="M1028.785,239.255h-6.923l-9.172-26.234-9.211,26.226h-6.873l12.513-34.971h7.149Zm-6.216-1h4.8l-11.8-32.979h-5.739l-11.8,32.971h4.746l3.67-10.47h0l.22-.666,6.035-17.106Z" fill="#707070"/>
        <path id="Path_15738" data-name="Path 15738" d="M1043.891,239.17h-6.563V204.248h6.563Zm-5.563-1h4.563V205.248h-4.563Z" fill="#707070"/>
      </g>
    </g>
    <g id="Group_11" data-name="Group 11">
      <g id="Group_10" data-name="Group 10">
        <path id="Path_16" data-name="Path 16" d="M820.372,250.2a5.1,5.1,0,0,0-1.971-2.217,5.651,5.651,0,0,0-3-.786,6.1,6.1,0,0,0-3.086.786,5.55,5.55,0,0,0-2.159,2.253,7.682,7.682,0,0,0,0,6.77,5.57,5.57,0,0,0,2.159,2.241,6.09,6.09,0,0,0,3.086.786,5.585,5.585,0,0,0,3.942-1.431,5.913,5.913,0,0,0,1.807-3.872h-6.523v-1.739h8.8v1.643a8.132,8.132,0,0,1-1.267,3.7,7.843,7.843,0,0,1-2.839,2.652,7.969,7.969,0,0,1-3.919.974,8.26,8.26,0,0,1-4.153-1.068,7.85,7.85,0,0,1-2.969-2.968,9.017,9.017,0,0,1,0-8.6,7.8,7.8,0,0,1,2.969-2.98,8.239,8.239,0,0,1,4.153-1.068,8.336,8.336,0,0,1,4.611,1.291,7.384,7.384,0,0,1,2.922,3.637Z" fill="url(#linear-gradient-9)"/>
        <path id="Path_17" data-name="Path 17" d="M830.72,247.2v5.468h5.96v1.76h-5.96v5.631h6.664v1.76h-8.8V245.439h8.8v1.76Z" fill="url(#linear-gradient-10)"/>
        <path id="Path_18" data-name="Path 18" d="M855.828,261.818h-2.135L845.1,248.795v13.023H842.97V245.439H845.1l8.588,13v-13h2.135Z" fill="url(#linear-gradient-11)"/>
        <path id="Path_19" data-name="Path 19" d="M863.946,247.2v5.468h5.96v1.76h-5.96v5.631h6.664v1.76h-8.8V245.439h8.8v1.76Z" fill="url(#linear-gradient-12)"/>
        <path id="Path_20" data-name="Path 20" d="M884.806,261.818l-3.9-6.688H878.33v6.688H876.2V245.463h5.279a7.006,7.006,0,0,1,3.133.634,4.409,4.409,0,0,1,1.912,1.713,4.743,4.743,0,0,1-3.261,7.157l4.106,6.852Zm-6.476-8.4h3.144a3.575,3.575,0,0,0,2.6-.856,3.072,3.072,0,0,0,.868-2.288,2.929,2.929,0,0,0-.856-2.253,3.727,3.727,0,0,0-2.617-.8h-3.144Z" fill="url(#linear-gradient-13)"/>
        <path id="Path_21" data-name="Path 21" d="M902.475,258.181h-7.134l-1.314,3.637h-2.253l5.913-16.262h2.464l5.89,16.262h-2.253Zm-.61-1.736-2.957-8.26-2.957,8.26Z" fill="url(#linear-gradient-14)"/>
        <path id="Path_22" data-name="Path 22" d="M913.1,260.081h5.726v1.737h-7.86V245.463H913.1Z" fill="url(#linear-gradient-15)"/>
        <path id="Path_23" data-name="Path 23" d="M942.13,245.463V247.2h-4.457v14.619h-2.136V247.2h-4.482v-1.736Z" fill="url(#linear-gradient-16)"/>
        <path id="Path_24" data-name="Path 24" d="M955.716,261.818l-3.9-6.688h-2.582v6.688H947.1V245.463h5.279a7.006,7.006,0,0,1,3.133.634,4.409,4.409,0,0,1,1.912,1.713,4.742,4.742,0,0,1-3.262,7.157l4.107,6.852Zm-6.477-8.4h3.145a3.575,3.575,0,0,0,2.6-.856,3.072,3.072,0,0,0,.868-2.288,2.929,2.929,0,0,0-.856-2.253,3.727,3.727,0,0,0-2.617-.8h-3.145Z" fill="url(#linear-gradient-17)"/>
        <path id="Path_25" data-name="Path 25" d="M973.385,258.181h-7.133l-1.314,3.637h-2.253l5.914-16.262h2.464l5.89,16.262H974.7Zm-.61-1.736-2.957-8.26-2.957,8.26Z" fill="url(#linear-gradient-18)"/>
        <path id="Path_26" data-name="Path 26" d="M991.607,246.456a7.008,7.008,0,0,1,3,2.851,9.62,9.62,0,0,1,0,8.717,6.894,6.894,0,0,1-3,2.816,10.311,10.311,0,0,1-4.634.974h-5.092V245.463h5.092A10.089,10.089,0,0,1,991.607,246.456Zm.2,11.92a6.392,6.392,0,0,0,1.666-4.7,6.525,6.525,0,0,0-1.678-4.764,6.446,6.446,0,0,0-4.822-1.713h-2.957v12.857h2.957a6.522,6.522,0,0,0,4.834-1.676Z" fill="url(#linear-gradient-19)"/>
        <path id="Path_27" data-name="Path 27" d="M1002.95,245.463v16.355h-2.135V245.463Z" fill="url(#linear-gradient-20)"/>
        <path id="Path_28" data-name="Path 28" d="M1021.8,261.818h-2.14l-8.588-13.023v13.023h-2.135V245.439h2.135l8.588,13v-13h2.14Z" fill="url(#linear-gradient-21)"/>
        <path id="Path_29" data-name="Path 29" d="M1040.165,250.2a5.1,5.1,0,0,0-1.971-2.217,5.65,5.65,0,0,0-3-.786,6.092,6.092,0,0,0-3.086.786,5.549,5.549,0,0,0-2.159,2.253,7.676,7.676,0,0,0,0,6.77,5.57,5.57,0,0,0,2.159,2.241,6.09,6.09,0,0,0,3.086.786,5.581,5.581,0,0,0,3.942-1.431,5.913,5.913,0,0,0,1.807-3.872h-6.523v-1.739h8.8v1.643a8.132,8.132,0,0,1-1.267,3.7,7.844,7.844,0,0,1-2.839,2.652,7.966,7.966,0,0,1-3.918.974,8.253,8.253,0,0,1-4.154-1.068,7.851,7.851,0,0,1-2.969-2.968,9.018,9.018,0,0,1,0-8.6,7.8,7.8,0,0,1,2.969-2.98,8.75,8.75,0,0,1,8.764.223,7.384,7.384,0,0,1,2.922,3.637Z" fill="url(#linear-gradient-22)"/>
      </g>
    </g>
    <g id="Group_14" data-name="Group 14">
      <g id="Group_13" data-name="Group 13">
        <path id="Path_15739" data-name="Path 15739" d="M815.506,262.02h-.2a8.377,8.377,0,0,1-4.121-1.085,7.974,7.974,0,0,1-3.016-3.015,9.115,9.115,0,0,1,0-8.721,7.956,7.956,0,0,1,3.018-3.03,8.9,8.9,0,0,1,8.891.226,7.559,7.559,0,0,1,2.974,3.7l.062.169-2.822-.008-.033-.072a4.954,4.954,0,0,0-1.924-2.163,5.424,5.424,0,0,0-2.932-.768h-.089a5.981,5.981,0,0,0-2.938.77,5.426,5.426,0,0,0-2.109,2.2,7.6,7.6,0,0,0,0,6.657,5.436,5.436,0,0,0,2.109,2.188,5.978,5.978,0,0,0,2.933.77h.088a5.463,5.463,0,0,0,3.861-1.4,5.767,5.767,0,0,0,1.756-3.654H814.5V252.8h9.05v1.769a8.289,8.289,0,0,1-1.287,3.768,7.982,7.982,0,0,1-2.885,2.693A8.1,8.1,0,0,1,815.506,262.02Zm-.106-.251h.1a7.853,7.853,0,0,0,3.758-.959,7.725,7.725,0,0,0,2.793-2.609,8.016,8.016,0,0,0,1.248-3.643V253.05h-8.55v1.486h6.531l-.009.133a6.027,6.027,0,0,1-1.844,3.955,5.69,5.69,0,0,1-4.034,1.465,6.357,6.357,0,0,1-3.143-.8,5.684,5.684,0,0,1-2.208-2.292,7.86,7.86,0,0,1,0-6.883,5.684,5.684,0,0,1,2.209-2.306,6.4,6.4,0,0,1,3.15-.8h.125a5.767,5.767,0,0,1,2.937.805,5.187,5.187,0,0,1,1.987,2.2l2.3.007a7.314,7.314,0,0,0-2.807-3.407,8.652,8.652,0,0,0-8.636-.218,7.683,7.683,0,0,0-2.92,2.931,8.866,8.866,0,0,0,0,8.48,7.708,7.708,0,0,0,2.921,2.918,8.123,8.123,0,0,0,4,1.053Z" fill="#707070"/>
        <path id="Path_15740" data-name="Path 15740" d="M837.509,261.872h-9.05V245.243h9.05v2.01h-6.664v5.218h5.96v2.01h-5.96v5.381h6.664Zm-8.8-.25h8.55v-1.51h-6.664v-5.881h5.96v-1.51h-5.96V247h6.664v-1.51h-8.55Z" fill="#707070"/>
        <path id="Path_15741" data-name="Path 15741" d="M855.953,261.872h-2.328l-8.4-12.731v12.731h-2.384V245.243h2.327l8.4,12.709V245.243h2.386Zm-2.193-.25H855.7V245.493h-1.886v13.291l-8.78-13.291h-1.942v16.129h1.884V248.308Z" fill="#707070"/>
        <path id="Path_15742" data-name="Path 15742" d="M870.734,261.872h-9.049V245.243h9.049v2.01H864.07v5.218h5.96v2.01h-5.96v5.381h6.664Zm-8.8-.25h8.549v-1.51H863.82v-5.881h5.96v-1.51h-5.96V247h6.664v-1.51h-8.549Z" fill="#707070"/>
        <path id="Path_15743" data-name="Path 15743" d="M887.584,261.873h-2.851l-3.894-6.688h-2.384v6.688h-2.386V245.267h5.405a7.269,7.269,0,0,1,3.184.646,4.51,4.51,0,0,1,1.967,1.761,4.867,4.867,0,0,1-3.167,7.312Zm-2.706-.251h2.265l-4.086-6.82.18-.031a4.614,4.614,0,0,0,3.175-6.967,4.272,4.272,0,0,0-1.858-1.665,6.979,6.979,0,0,0-3.076-.623h-5.159v16.105h1.886v-6.688h2.778Zm-3.14-8.14c-.092,0-.182,0-.274-.01h-3.259l-.006-6.447h3.27a3.813,3.813,0,0,1,2.7.828,3.053,3.053,0,0,1,.9,2.358,3.194,3.194,0,0,1-.9,2.368A3.73,3.73,0,0,1,881.738,253.482Zm-3.283-.26h3.019a3.481,3.481,0,0,0,2.517-.826,2.944,2.944,0,0,0,.825-2.187,2.812,2.812,0,0,0-.818-2.17,3.607,3.607,0,0,0-2.519-.764h-3.03Z" fill="#707070"/>
        <path id="Path_15744" data-name="Path 15744" d="M906.22,261.875H903.7l-.029-.083-1.284-3.554h-6.958l-1.315,3.637h-2.519l.061-.167,5.943-16.345h2.639l.03.083Zm-2.344-.25h1.986l-5.8-16.012h-2.288l-5.822,16.012h1.986l1.315-3.637h7.309l.03.083Zm-1.834-5.124h-6.269l3.134-8.755Zm-5.913-.25h5.558l-2.78-7.763Z" fill="#707070"/>
        <path id="Path_15745" data-name="Path 15745" d="M918.955,261.872h-8.11V245.267h2.384v14.618h5.726Zm-7.86-.25h7.61v-1.487h-5.726V245.517h-1.884Z" fill="#707070"/>
        <path id="Path_15746" data-name="Path 15746" d="M937.8,261.876h-2.386V247.257H930.93v-1.99h11.325v1.99H937.8Zm-2.136-.25h1.886V247.007h4.457v-1.49H931.18v1.49h4.482Z" fill="#707070"/>
        <path id="Path_15747" data-name="Path 15747" d="M958.493,261.873h-2.849l-3.9-6.688h-2.385v6.688h-2.384V245.267h5.4a7.263,7.263,0,0,1,3.184.646,4.51,4.51,0,0,1,1.967,1.761,4.867,4.867,0,0,1-3.168,7.312Zm-2.7-.251h2.264l-4.087-6.82.181-.031a4.614,4.614,0,0,0,3.175-6.967,4.272,4.272,0,0,0-1.858-1.665,6.976,6.976,0,0,0-3.076-.623h-5.158v16.105h1.884v-6.688h2.78Zm-3.14-8.14c-.091,0-.182,0-.274-.01h-3.261l-.005-6.447h3.271a3.827,3.827,0,0,1,2.695.828,3.06,3.06,0,0,1,.9,2.358,3.2,3.2,0,0,1-.9,2.368A3.73,3.73,0,0,1,952.648,253.482Zm-3.285-.26h3.021a3.483,3.483,0,0,0,2.517-.826,2.953,2.953,0,0,0,.826-2.187,2.816,2.816,0,0,0-.819-2.17,3.611,3.611,0,0,0-2.519-.764h-3.031Z" fill="#707070"/>
        <path id="Path_15748" data-name="Path 15748" d="M977.132,261.875h-2.521l-.029-.083-1.285-3.554H966.34l-1.315,3.637h-2.519l.061-.167,5.944-16.345h2.639l.03.083Zm-2.345-.25h1.987l-5.8-16.012h-2.288l-5.824,16.012h1.987l1.314-3.637h7.309l.029.083Zm-1.835-5.124h-6.269l3.134-8.754Zm-5.914-.25H972.6l-2.78-7.763Z" fill="#707070"/>
        <path id="Path_15749" data-name="Path 15749" d="M987.223,261.875l-.253,0h-5.214V245.267h5.217a10.263,10.263,0,0,1,4.688,1.009h0a7.107,7.107,0,0,1,3.054,2.9,9.774,9.774,0,0,1,0,8.835,6.981,6.981,0,0,1-3.057,2.871A10.48,10.48,0,0,1,987.223,261.875Zm-5.217-.253h4.967a10.252,10.252,0,0,0,4.581-.962A6.732,6.732,0,0,0,994.5,257.9a9.525,9.525,0,0,0,0-8.6,6.855,6.855,0,0,0-2.943-2.8,10.031,10.031,0,0,0-4.576-.984h-4.97Zm5.406-1.491c-.149,0-.3-.005-.448-.015h-3.073V247.007h3.082a6.58,6.58,0,0,1,4.907,1.747,6.689,6.689,0,0,1,1.718,4.863,6.537,6.537,0,0,1-1.7,4.777l-.007.007A6.676,6.676,0,0,1,987.412,260.131Zm-3.271-.265h2.832a6.416,6.416,0,0,0,4.746-1.645,6.3,6.3,0,0,0,1.629-4.6,6.445,6.445,0,0,0-1.646-4.688,6.347,6.347,0,0,0-4.721-1.672h-2.84Z" fill="#707070"/>
        <path id="Path_15750" data-name="Path 15750" d="M1003.074,261.872h-2.385V245.267h2.385Zm-2.135-.25h1.885V245.517h-1.885Z" fill="#707070"/>
        <path id="Path_15751" data-name="Path 15751" d="M1021.922,261.872h-2.333l-8.4-12.731v12.731h-2.384V245.243h2.327l8.4,12.709V245.243h2.391Zm-2.2-.25h1.948V245.493h-1.891v13.291L1011,245.493h-1.942v16.129h1.884V248.308Z" fill="#707070"/>
        <path id="Path_15752" data-name="Path 15752" d="M1035.3,262.02c-.065,0-.132,0-.2,0a8.373,8.373,0,0,1-4.119-1.085,7.975,7.975,0,0,1-3.016-3.015,9.115,9.115,0,0,1,0-8.721,7.955,7.955,0,0,1,3.018-3.03,8.9,8.9,0,0,1,8.891.226,7.559,7.559,0,0,1,2.974,3.7l.062.169-2.822-.008-.033-.072a4.954,4.954,0,0,0-1.924-2.163,5.519,5.519,0,0,0-2.812-.769h-.209a5.981,5.981,0,0,0-2.938.77,5.427,5.427,0,0,0-2.109,2.2,7.6,7.6,0,0,0,0,6.657,5.429,5.429,0,0,0,2.109,2.188,5.975,5.975,0,0,0,2.933.77h.088a5.473,5.473,0,0,0,3.861-1.4,5.767,5.767,0,0,0,1.756-3.654H1034.3V252.8h9.05v1.769a8.3,8.3,0,0,1-1.287,3.768,7.981,7.981,0,0,1-2.885,2.693A8.106,8.106,0,0,1,1035.3,262.02Zm-.1-.251a7.759,7.759,0,0,0,6.653-3.567,8.026,8.026,0,0,0,1.248-3.643V253.05h-8.55v1.486h6.531l-.009.133a6.027,6.027,0,0,1-1.844,3.955,5.692,5.692,0,0,1-4.035,1.465h-.091a6.223,6.223,0,0,1-3.051-.8,5.671,5.671,0,0,1-2.208-2.292,7.86,7.86,0,0,1,0-6.883,5.683,5.683,0,0,1,2.209-2.306,6.379,6.379,0,0,1,3.15-.8h.125a5.767,5.767,0,0,1,2.937.805,5.188,5.188,0,0,1,1.987,2.2l2.3.007a7.314,7.314,0,0,0-2.807-3.407,8.652,8.652,0,0,0-8.636-.218,7.683,7.683,0,0,0-2.92,2.931,8.866,8.866,0,0,0,0,8.48,7.708,7.708,0,0,0,2.921,2.918,8.118,8.118,0,0,0,4,1.053Z" fill="#707070"/>
      </g>
    </g>
    <g id="Group_16" data-name="Group 16">
      <path id="Path_15753" data-name="Path 15753" d="M925.209,188.069l-6.151-3.552V119.085l12.3,0v65.428Zm-4.151-4.706,4.151,2.4,4.152-2.4V121.089l-8.3,0Zm20.053-4.481V109.327H909.284v69.554l-32.887-19V46.472l32.9-19.005V97.02h12.379l0,0h19.437V27.468l32.9,19V159.879Zm-33.827-71.555h35.827v68.09l28.9-16.692V47.627l-28.9-16.694V99.024H918.437l0,0H907.3V30.932L878.4,47.626v111.1l28.887,16.692Zm44.147,53.707V45.317l12.3,7.1V153.927Zm2-112.252V157.569l8.3-4.794v-99.2ZM898.984,161.034l-12.3-7.107V52.421l12.3-7.1Zm-10.3-8.261,8.3,4.795V48.782l-8.3,4.793Zm30.369-65.51V21.833l6.153-3.553,6.15,3.553V87.259Zm2-64.276V85.262l8.3,0V22.987l-4.15-2.4Z" fill="#707070"/>
    </g>
  </g>
</svg>
