<svg xmlns="http://www.w3.org/2000/svg" xmlns:xlink="http://www.w3.org/1999/xlink" width="97.614" height="169.789" viewBox="0 0 97.614 169.789">
  <defs>
    <linearGradient id="linear-gradient" x1="-9.378" y1="5.543" x2="-9.368" y2="5.543" gradientUnits="objectBoundingBox">
      <stop offset="0" stop-color="#e5d57d"/>
      <stop offset="0.5" stop-color="#c3a656"/>
      <stop offset="1" stop-color="#e5d57d"/>
    </linearGradient>
  </defs>
  <g id="Group_11669" data-name="Group 11669" transform="translate(-165.338 -292)">
    <g id="Group_1" data-name="Group 1" transform="translate(-711.059 273.72)">
      <path id="Path_1" data-name="Path 1" d="M888.048,153.348V53l10.3-5.949V159.3Zm42.673-67.091V22.41l-5.15-2.975-5.154,2.975V86.262Zm-10.3,11.761h-11.76V29.2l-10.306,5.949L888.048,41.1l-10.3,5.949V159.3l10.3,5.947,10.3,5.949,10.3,5.949v-68.82h33.827v68.822l10.3-5.949,10.3-5.949,10.3-5.949V47.048l-10.3-5.949L952.79,35.148,942.49,29.2V98.022H920.419Zm0,22.066v63.851l5.152,2.974,5.152-2.974V120.088Zm42.673,33.264V53l-10.3-5.949V159.3l10.3-5.949Z" fill-rule="evenodd" fill="url(#linear-gradient)"/>
    </g>
    <path id="Path_15754" data-name="Path 15754" d="M925.209,188.069l-6.151-3.552V119.085l12.3,0v65.428Zm-4.151-4.706,4.151,2.4,4.152-2.4V121.089l-8.3,0Zm20.053-4.481V109.327H909.284v69.554l-32.887-19V46.472l32.9-19.005V97.02h12.379l0,0h19.437V27.468l32.9,19V159.879Zm-33.827-71.555h35.827v68.09l28.9-16.692V47.627l-28.9-16.694V99.024H918.437l0,0H907.3V30.932L878.4,47.626v111.1l28.887,16.692Zm44.147,53.707V45.317l12.3,7.1V153.927Zm2-112.252V157.569l8.3-4.794v-99.2ZM898.984,161.034l-12.3-7.107V52.421l12.3-7.1Zm-10.3-8.261,8.3,4.795V48.782l-8.3,4.793Zm30.369-65.51V21.833l6.153-3.553,6.15,3.553V87.259Zm2-64.276V85.262l8.3,0V22.987l-4.15-2.4Z" transform="translate(-711.059 273.72)" fill="#707070"/>
  </g>
</svg>
