<svg xmlns="http://www.w3.org/2000/svg" width="274.178" height="228.467" viewBox="0 0 274.178 228.467">
  <g id="Group_11672" data-name="Group 11672" transform="translate(-27 -269)">
    <g id="Group_11648" data-name="Group 11648" transform="translate(27 269)">
      <g id="freepik--background-complete--inject-21" transform="translate(0 20.004)">
        <path id="Path_15624" data-name="Path 15624" d="M155.4,271.347c-11.5,11.255-13.449,28.672-11.012,43.929.067.345.605.252.605-.076,0-3.472-.109-6.91-.1-10.339.067-.16.118-.311.185-.462,3-2.186,5.783-4.64,7.464-8,1.925-3.783,2.681-8.036,4.144-11.987.143-.378-.261-.269-.53-.066-6.994,5.153-9.246,10.709-11.23,18.123a61.268,61.268,0,0,1,1.219-11.55c1.513-7.036,4.5-14.021,9.557-19.241a.223.223,0,1,0-.3-.328Z" transform="translate(-91.978 -160.453)" fill="#a6a6a6"/>
        <path id="Path_15625" data-name="Path 15625" d="M159.518,270.945c1.975.067,3.219,3.228,4.758,4.152a1.488,1.488,0,0,0,2.093-.218c.033-.041.064-.083.092-.127,1.53-2.135-.572-4.766-2.522-6.237,1.412.58,2.581,1.6,4.1,1.891a1.438,1.438,0,0,0,1.806-.935,1.375,1.375,0,0,0,.044-.176c.664-2.908-2.976-4.2-5.481-4.262,1.21-.841,4.69-3.135,2.841-4.262s-5.951,2.143-7.279,3.219c-1.959,1.589-4.287,3.959-4.379,6.439C155.441,273.332,157.972,271.55,159.518,270.945Z" transform="translate(-93.911 -158.74)" fill="#dbdbdb"/>
        <path id="Path_15626" data-name="Path 15626" d="M158.887,271.937c2.522-1.152,7.389.5,7.8-.455.841-1.95-3.043-3.287-5.144-3.547,1.933-.521,5.632-1.353,5.523-3.211-.143-2.278-5.674-.319-8.481,1.824-3.522,2.708-3.505,5.321-2.917,5.843C156.467,273.105,158.467,272.122,158.887,271.937Z" transform="translate(-93.877 -159.244)" fill="#ebebeb"/>
        <path id="Path_15627" data-name="Path 15627" d="M126.348,270.016c11.919,10.809,14.517,28.143,12.668,43.483,0,.345-.588.277-.6-.05-.134-3.472-.16-6.918-.3-10.339l-.193-.462c-3.077-2.059-5.934-4.421-7.767-7.733-2.068-3.7-2.984-7.927-4.6-11.819-.151-.37.252-.277.521-.092,7.187,4.892,9.633,10.356,11.919,17.694a61.9,61.9,0,0,0-1.681-11.5c-1.782-6.977-5.043-13.836-10.289-18.863C125.86,270.126,126.146,269.823,126.348,270.016Z" transform="translate(-89.119 -160.241)" fill="#a6a6a6"/>
        <path id="Path_15628" data-name="Path 15628" d="M122,269.759c-1.975.143-3.093,3.362-4.6,4.328a1.478,1.478,0,0,1-2.088-.126,1.612,1.612,0,0,1-.106-.134c-1.606-2.076.387-4.784,2.3-6.33-1.387.639-2.522,1.681-4.026,2.042a1.428,1.428,0,0,1-1.832-.853,1.463,1.463,0,0,1-.06-.214c-.782-2.883,2.816-4.312,5.312-4.473-1.244-.79-4.808-2.95-3-4.143s6.027,1.917,7.4,2.942c2.017,1.512,4.438,3.791,4.615,6.27C126.144,271.995,123.546,270.3,122,269.759Z" transform="translate(-86.88 -158.588)" fill="#dbdbdb"/>
        <path id="Path_15629" data-name="Path 15629" d="M123.1,270.726c-2.564-1.051-7.363.79-7.809-.15-.908-1.917,2.917-3.362,5.043-3.741-1.95-.446-5.674-1.142-5.632-3,.05-2.278,5.657-.538,8.54,1.5,3.623,2.572,3.7,5.178,3.135,5.724C125.573,271.811,123.53,270.9,123.1,270.726Z" transform="translate(-87.394 -159.093)" fill="#ebebeb"/>
        <path id="Path_15630" data-name="Path 15630" d="M138.983,296.323a117.346,117.346,0,0,0,3.707,17.1.429.429,0,0,0,.841-.168c-.782-5.262-2.211-10.44-2.992-15.7a78.557,78.557,0,0,1-.916-16.131c.5-8.876,2.908-18.324,8.7-25.268.135-.168-.143-.4-.269-.244-11.6,13.525-9.751,30.1-9.742,31.589-1.681-5.6-3.362-12.02-9.549-17.719-.269-.244-.479-.126-.429.294,1.1,10.416,3.984,15.8,10.028,21.343C138.512,293.1,138.722,294.71,138.983,296.323Z" transform="translate(-89.565 -157.993)" fill="#a6a6a6"/>
        <path id="Path_15631" data-name="Path 15631" d="M151.36,255.308c2.085-.925,4.968,1.731,7.027,1.907a1.68,1.68,0,0,0,2.048-1.206,1.649,1.649,0,0,0,.045-.248c.513-2.984-2.984-4.657-5.775-5.186,1.757-.109,3.48.353,5.2-.109a1.681,1.681,0,0,0,1.4-1.925c-.008-.054-.02-.107-.034-.16-.765-3.362-5.2-2.858-7.826-1.681.841-1.488,3.287-5.615.841-5.884s-5.094,5.22-5.926,7.01c-1.236,2.631-2.463,6.271-1.3,8.885C148.333,259.83,150.057,256.7,151.36,255.308Z" transform="translate(-92.477 -155.594)" fill="#dbdbdb"/>
        <path id="Path_15632" data-name="Path 15632" d="M151,256.685c2.051-2.463,7.927-3.194,7.868-4.4-.109-2.438-4.808-1.874-7.111-1.084,1.732-1.513,5.153-4.245,4.1-6.119-1.294-2.286-6.052,2.522-7.876,6.17-2.295,4.581-.958,7.279-.092,7.523C149.084,259.122,150.664,257.1,151,256.685Z" transform="translate(-92.496 -156.181)" fill="#ebebeb"/>
        <path id="Path_15633" data-name="Path 15633" d="M130.955,307.71,125.844,346.8h31.1c-.639-3.463-6.43-39.129-6.43-39.129Z" transform="translate(-89.17 -166.253)" fill="#dbdbdb"/>
        <rect id="Rectangle_17376" data-name="Rectangle 17376" width="22.259" height="9.406" transform="translate(239.505 17.791)" fill="#ebebeb"/>
        <rect id="Rectangle_17377" data-name="Rectangle 17377" width="22.259" height="9.406" transform="translate(251.92 5.93)" fill="#ebebeb"/>
        <rect id="Rectangle_17378" data-name="Rectangle 17378" width="22.259" height="9.406" transform="translate(227.081 5.93)" fill="#ebebeb"/>
        <rect id="Rectangle_17379" data-name="Rectangle 17379" width="22.259" height="9.406" transform="translate(12.415 139.103)" fill="#ebebeb"/>
        <rect id="Rectangle_17380" data-name="Rectangle 17380" width="22.259" height="9.406" transform="translate(0 127.243)" fill="#ebebeb"/>
        <rect id="Rectangle_17381" data-name="Rectangle 17381" width="22.259" height="9.406" transform="translate(234.945 79.974)" fill="#ebebeb"/>
        <rect id="Rectangle_17382" data-name="Rectangle 17382" width="22.259" height="9.406" transform="translate(28.36)" fill="#ebebeb"/>
        <rect id="Rectangle_17383" data-name="Rectangle 17383" width="22.259" height="9.406" transform="translate(15.937 11.861)" fill="#ebebeb"/>
      </g>
      <g id="freepik--Table--inject-21" transform="translate(0 200.093)">
        <path id="Path_15634" data-name="Path 15634" d="M82.214,354.1l33.8-.2,33.8-.076,67.616-.143,67.609.143,33.812.076,33.8.2-33.8.21-33.812.067-67.609.143-67.616-.143-33.8-.076Z" transform="translate(-82.214 -353.677)" fill="#263238"/>
      </g>
      <g id="freepik--Character--inject-21" transform="translate(56.063 0)">
        <path id="Path_15635" data-name="Path 15635" d="M242.176,210.026a.841.841,0,0,0,.546.916c.883.134,1.959.277,3.152.446,3.556-7.717,7.187-13.795,6.161-11.391a43.567,43.567,0,0,0-3.051,11.819c1.387.185,4.623.58,6.237.773,3.715-13.769,7.809-23.889,7.33-20.712-1.95,12.819-1.605,17-1.16,21.486,15.072,1.832,34.867,4,49.216,5.237,2.345-7.565,4.539-15.836,4.741-15.231,1.572,4.5,1.538,10.852,1.143,15.727,4.573.361,8.238.555,10.482.555,0,0,1.681-6.405,1.984-8.523a47.329,47.329,0,0,0-.151-16.358c-1.034-5.514-3.236-10.474-5.3-15.542a.779.779,0,0,0-.025-.092h0A47.055,47.055,0,0,1,320.56,168.8a.2.2,0,0,1,0-.084,46.511,46.511,0,0,1-.5-7.809c.185-9.566-4.1-18.165-12.247-21.275-13.912-14.214-33.018-7.691-38.414,4.329h0c-2.11,5.388-4.2,12.424-6.027,17.845h0a.061.061,0,0,1,0,.059h0a55.327,55.327,0,0,1-2.446,6.237C255.928,177.79,246.3,182.783,242.176,210.026Z" transform="translate(-163.777 -118.173)" fill="#263238"/>
        <path id="Path_15636" data-name="Path 15636" d="M324.143,144.516a17.572,17.572,0,0,1,8.406,15.18c.135,4.086,0,8.061,1.152,11.987a41.427,41.427,0,0,0,5.4,10.87c3.421,5.413,5.674,10.725,5.666,17.585s-1.042,15.13-3.808,21.426c0,.041-.067,0-.05,0,2.354-6.43,3.211-15.492,2.732-22.435-.53-7.632-4.094-12.659-7.674-18.686a32.315,32.315,0,0,1-4.632-15.82c-.1-3.463.269-7.036-.74-10.364-1.194-3.968-4.052-6.649-6.91-9.045C323.3,144.869,323.748,144.256,324.143,144.516Z" transform="translate(-176.749 -120.229)" fill="#263238"/>
        <path id="Path_15637" data-name="Path 15637" d="M250.2,180.464c4.354-5.119,8.8-9.431,11.676-15.971,2.614-5.96,4.371-12.323,7.019-18.266,0-.1.177-.05.134.059-4.2,10.591-5.817,21.468-13.163,30.1-4,4.69-7.96,9.019-10.835,14.777A57,57,0,0,0,239.6,210.5a.156.156,0,1,1-.311,0A46.741,46.741,0,0,1,250.2,180.464Z" transform="translate(-163.318 -120.503)" fill="#263238"/>
        <path id="Path_15638" data-name="Path 15638" d="M201.879,321.516s40.575,10.928,47.283,9.751,29.353-31.656,34.38-42.71,13.374-66.044,11.768-72.1-10-6.136-17.089,9.465-23.839,49.9-26.823,52.721S198.609,318.59,201.879,321.516Z" transform="translate(-157.33 -131.106)" fill="#e4e4e4"/>
        <path id="Path_15639" data-name="Path 15639" d="M242.377,346.776c-6.22-3.253-13.794-11.146-18.955-11.969a5.993,5.993,0,0,0-6.447,3.077s-2.37-5.27-7.179-5.245c-2.463,0-4.615,3.968-4.615,3.968s-2.093-4.144-6.355-3.858c-3.4.227-5.043,4.161-5.043,4.161s-3.85-3.043-7.246-1.681c-6.876,2.715-8.019,31.942,2.572,36.885,4.934,2.3,4.825-4.85,4.825-4.85s2.639,10.255,8.658,10.642,5.321-8.893,5.321-8.893,2.648,9.91,8.927,9.683c6.54-.227,4.253-9.4,4.253-9.4s4.152,6.674,8.919,5.4c7.876-2.1-.588-17.921,1.194-24.284H241.1Z" transform="translate(-154.068 -150.23)" fill="#e4e4e4"/>
        <path id="Path_15640" data-name="Path 15640" d="M242.87,341.065c6.161,2.571,13.189-7.154,19.527-4.893,8.221,2.934.622,13.079-11.835,14.727h-9.894Z" transform="translate(-163.538 -150.738)" fill="#e4e4e4"/>
        <path id="Path_15641" data-name="Path 15641" d="M195.321,338.394a.077.077,0,0,0-.076-.076.076.076,0,0,0-.075.076c-2.715,9.523-2.791,20.82.614,30.185.109.3.664.261.605-.1C194.725,358.122,194.069,348.825,195.321,338.394Z" transform="translate(-155.967 -151.135)" fill="#263238"/>
        <path id="Path_15642" data-name="Path 15642" d="M209.278,337.139a.105.105,0,0,0-.21,0c-2.749,9.835-2.522,22.552,2.715,32.892.177.353.7.487.521.066C209.371,362.97,208.1,346.545,209.278,337.139Z" transform="translate(-158.223 -150.932)" fill="#263238"/>
        <path id="Path_15643" data-name="Path 15643" d="M228.154,370.958c-4.6-10.087-5.5-20.653-4.859-31.631,0-.144-.193-.144-.235,0-1.774,5.287-1.446,12.323-.731,17.778a29.165,29.165,0,0,0,5.439,14C227.919,371.285,228.255,371.176,228.154,370.958Z" transform="translate(-160.523 -151.279)" fill="#263238"/>
        <path id="Path_15644" data-name="Path 15644" d="M257.565,334.821c-4.035-1.345-8.179,1.883-11.575,3.69a20.254,20.254,0,0,1-3.421,1.622,6.973,6.973,0,0,1-5.884-.446c-1.883-1.2-7.759-7.069-12-5.119a9.04,9.04,0,0,0-3.631,3.085c-1.294-2.354-2.95-4.917-5.817-5.388a4.538,4.538,0,0,0-3.6.933,7.335,7.335,0,0,0-1.412,1.437,6.624,6.624,0,0,0-.975,1.606c0-.02,0-.04,0-.059l-.092-.177-.177-.361a3.765,3.765,0,0,0-1-1.252.838.838,0,0,0-.614-.252.067.067,0,0,0,0,.135.972.972,0,0,1,.454.445c.135.2.261.412.4.605s.277.4.42.588l.21.311.092.16a1.077,1.077,0,0,0,.135.143.127.127,0,0,0,.177.025.178.178,0,0,0,.025-.025h0a8.459,8.459,0,0,0,1.168-1.278,10.066,10.066,0,0,1,1.4-1.345,4.36,4.36,0,0,1,3.455-.841c2.572.5,4.2,2.791,5.573,4.833h.042c-.042.067.05.126.1.076,1.412-1.236,2.757-2.623,4.707-2.908,2.1-.311,4.094.7,5.834,1.757a26.722,26.722,0,0,1,2.522,1.681c.714.555,1.4,1.177,2.16,1.681,3.27,2.059,6.851.462,7.742.084a44.992,44.992,0,0,0,5.1-2.707,14.375,14.375,0,0,1,5.464-2.211,5.37,5.37,0,0,1,4.859,1.816c.614.79,1.4,2.27-.21,5.64,0,0,0,.067.05.042C260.095,341.975,262.768,336.561,257.565,334.821Z" transform="translate(-158.218 -150.16)" fill="#263238"/>
        <path id="Path_15645" data-name="Path 15645" d="M302.006,267.134l-38.288-6.119S282.009,224.794,293,214.287c10.843-10.373,16.122.252,14.525,16.274C305.755,248.322,302.006,267.134,302.006,267.134Z" transform="translate(-167.213 -130.706)" fill="#37474f"/>
        <path id="Path_15646" data-name="Path 15646" d="M301.51,268.572c-1.076-.251-2.177-.411-3.253-.656s-2.11-.4-3.169-.555c-2.16-.336-4.329-.639-6.489-.932-4.27-.589-8.54-1.236-12.827-1.681-2.438-.27-4.859-.64-7.3-.841-.076,0-.084.118,0,.134,4.245.992,8.565,1.681,12.869,2.429s8.54,1.353,12.827,1.816c1.2.134,2.412.286,3.614.345s2.48.177,3.715.193a.127.127,0,0,0,.017-.253Z" transform="translate(-167.96 -139.273)" fill="#263238"/>
        <path id="Path_15647" data-name="Path 15647" d="M282.408,330.812h101.4s-42.147-104.6-63.573-119.883c-6.43-4.59-16.677-5.1-23.587,4.11-5.665,7.565-21.393,37.616-22.107,48.426s7.767,21.494,7.767,21.494Z" transform="translate(-168.931 -130.315)" fill="#455a64"/>
        <path id="Path_15648" data-name="Path 15648" d="M323.848,269.8c.261-.066.513-.1.765-.15a1.521,1.521,0,0,1,1.82,1.147,1.571,1.571,0,0,1,.038.332,1.176,1.176,0,0,0,.538,1.025,1.491,1.491,0,0,0,.63.219,7.408,7.408,0,0,1,.765.151c-.252.067-.5.1-.765.151a1.5,1.5,0,0,1-.841-.076,1.564,1.564,0,0,1-.95-1.454,1.2,1.2,0,0,0-.58-1,1.64,1.64,0,0,0-.647-.194C324.361,269.9,324.109,269.869,323.848,269.8Z" transform="translate(-176.799 -140.182)" fill="#fff"/>
        <path id="Path_15649" data-name="Path 15649" d="M277.708,269.8c.252-.066.5-.1.757-.15a1.521,1.521,0,0,1,1.82,1.147,1.573,1.573,0,0,1,.038.332,1.186,1.186,0,0,0,.546,1.025,1.415,1.415,0,0,0,.63.219c.252.05.5.076.757.151-.252.067-.5.1-.757.151a1.534,1.534,0,0,1-.841-.076,1.589,1.589,0,0,1-.95-1.454,1.2,1.2,0,0,0-.58-1,1.6,1.6,0,0,0-.647-.194C278.212,269.9,277.96,269.869,277.708,269.8Z" transform="translate(-169.443 -140.182)" fill="#fff"/>
        <path id="Path_15650" data-name="Path 15650" d="M340.608,329.743c.252-.067.513-.1.765-.151a1.53,1.53,0,0,1,1.816,1.176,1.548,1.548,0,0,1,.034.311,1.208,1.208,0,0,0,.546,1.026,1.462,1.462,0,0,0,.63.21c.252.05.513.085.765.151-.252.076-.513.109-.765.16a1.5,1.5,0,0,1-.841-.084,1.58,1.58,0,0,1-.958-1.454,1.153,1.153,0,0,0-.58-.992,1.441,1.441,0,0,0-.639-.193A7.879,7.879,0,0,1,340.608,329.743Z" transform="translate(-179.471 -149.739)" fill="#fff"/>
        <path id="Path_15651" data-name="Path 15651" d="M361.468,273.042c.252-.076.513-.1.765-.151a1.513,1.513,0,0,1,1.811,1.139,1.538,1.538,0,0,1,.038.34,1.2,1.2,0,0,0,.546,1.025,1.339,1.339,0,0,0,.63.21c.252.059.513.084.765.16-.252.067-.513.1-.765.151a1.5,1.5,0,0,1-.841-.076,1.581,1.581,0,0,1-.958-1.454,1.168,1.168,0,0,0-.58-1,1.532,1.532,0,0,0-.639-.193C361.981,273.109,361.72,273.109,361.468,273.042Z" transform="translate(-182.796 -140.699)" fill="#fff"/>
        <path id="Path_15652" data-name="Path 15652" d="M308.138,242.552c.261-.066.513-.1.765-.15a1.493,1.493,0,0,1,.841.059,1.538,1.538,0,0,1,1,1.429,1.227,1.227,0,0,0,.546,1.025,1.6,1.6,0,0,0,.63.21c.261.05.513.084.765.151-.252.076-.5.1-.765.16a1.584,1.584,0,0,1-.841-.084,1.565,1.565,0,0,1-.95-1.479,1.178,1.178,0,0,0-.58-.992,1.5,1.5,0,0,0-.647-.2A4.224,4.224,0,0,1,308.138,242.552Z" transform="translate(-174.294 -135.839)" fill="#fff"/>
        <path id="Path_15653" data-name="Path 15653" d="M340.968,241.862c.252-.066.5-.1.765-.15a1.532,1.532,0,0,1,.841.059,1.562,1.562,0,0,1,1.009,1.429,1.194,1.194,0,0,0,.546,1.025,1.45,1.45,0,0,0,.63.21c.252.05.5.084.765.151-.261.076-.513.109-.765.16a1.5,1.5,0,0,1-.841-.084,1.581,1.581,0,0,1-.958-1.454,1.168,1.168,0,0,0-.58-.992,1.431,1.431,0,0,0-.639-.194A7.558,7.558,0,0,1,340.968,241.862Z" transform="translate(-179.528 -135.729)" fill="#fff"/>
        <path id="Path_15654" data-name="Path 15654" d="M319.718,210.352c.252-.067.513-.1.765-.151a1.513,1.513,0,0,1,1.811,1.138,1.551,1.551,0,0,1,.038.341,1.186,1.186,0,0,0,.546,1.026,1.444,1.444,0,0,0,.63.219c.252.05.513.075.765.15-.252.067-.513.1-.765.151a1.481,1.481,0,0,1-.841-.076,1.58,1.58,0,0,1-.958-1.454,1.17,1.17,0,0,0-.58-1,1.556,1.556,0,0,0-.639-.193C320.231,210.453,319.97,210.419,319.718,210.352Z" transform="translate(-176.14 -130.705)" fill="#fff"/>
        <path id="Path_15655" data-name="Path 15655" d="M300.088,294.883c.252-.067.5-.1.757-.151a1.479,1.479,0,0,1,.841.059,1.538,1.538,0,0,1,1.009,1.421,1.186,1.186,0,0,0,.546,1.026,1.418,1.418,0,0,0,.63.219c.252.05.5.084.757.151-.252.076-.5.1-.757.151a1.534,1.534,0,0,1-.841-.076,1.589,1.589,0,0,1-.95-1.454,1.2,1.2,0,0,0-.58-1,1.625,1.625,0,0,0-.647-.193A7.694,7.694,0,0,1,300.088,294.883Z" transform="translate(-173.011 -144.181)" fill="#fff"/>
        <path id="Path_15656" data-name="Path 15656" d="M335.908,349.811c.252-.076.513-.109.765-.16a1.529,1.529,0,0,1,1.816,1.176,1.548,1.548,0,0,1,.034.311,1.208,1.208,0,0,0,.546,1.025,1.361,1.361,0,0,0,.63.21c.252.05.513.085.765.151-.252.076-.513.109-.765.16a1.5,1.5,0,0,1-.841-.084,1.57,1.57,0,0,1-.958-1.454,1.153,1.153,0,0,0-.58-.992,1.441,1.441,0,0,0-.639-.193A7.443,7.443,0,0,1,335.908,349.811Z" transform="translate(-178.721 -152.937)" fill="#fff"/>
        <path id="Path_15657" data-name="Path 15657" d="M318.258,320.293c.252-.067.5-.1.757-.151a1.532,1.532,0,0,1,1.849,1.488,1.194,1.194,0,0,0,.546,1.026,1.4,1.4,0,0,0,.63.21c.252.05.5.084.765.151-.261.076-.513.1-.765.16a1.61,1.61,0,0,1-.841-.084,1.589,1.589,0,0,1-.95-1.454,1.194,1.194,0,0,0-.58-.992,1.327,1.327,0,0,0-.647-.193C318.8,320.394,318.51,320.369,318.258,320.293Z" transform="translate(-175.908 -148.233)" fill="#fff"/>
        <path id="Path_15658" data-name="Path 15658" d="M285.648,325.661c.261-.076.513-.109.765-.16a1.529,1.529,0,0,1,1.816,1.176,1.555,1.555,0,0,1,.034.312,1.21,1.21,0,0,0,.546,1.025,1.378,1.378,0,0,0,.63.21c.261.05.513.084.765.15a7.446,7.446,0,0,1-.765.16,1.5,1.5,0,0,1-.841-.084A1.571,1.571,0,0,1,287.64,327a1.162,1.162,0,0,0-.572-.992,1.512,1.512,0,0,0-.647-.193C286.161,325.762,285.909,325.728,285.648,325.661Z" transform="translate(-170.709 -149.087)" fill="#fff"/>
        <path id="Path_15659" data-name="Path 15659" d="M333.268,295.6c.252-.067.5-.1.757-.151a1.538,1.538,0,0,1,1.824,1.184,1.6,1.6,0,0,1,.034.3,1.194,1.194,0,0,0,.546,1.026,1.4,1.4,0,0,0,.63.21c.252.05.5.084.757.151-.252.076-.5.1-.757.16a1.535,1.535,0,0,1-.841-.084,1.589,1.589,0,0,1-.95-1.455,1.193,1.193,0,0,0-.58-.991,1.4,1.4,0,0,0-.647-.194C333.806,295.7,333.52,295.679,333.268,295.6Z" transform="translate(-178.301 -144.296)" fill="#fff"/>
        <path id="Path_15660" data-name="Path 15660" d="M374.958,336.013c.252-.067.513-.1.765-.151a1.494,1.494,0,0,1,.841.059,1.539,1.539,0,0,1,1,1.429,1.226,1.226,0,0,0,.546,1.025,1.6,1.6,0,0,0,.63.21c.261.05.513.084.765.151-.252.076-.5.1-.765.16a1.53,1.53,0,0,1-1.782-1.227,1.483,1.483,0,0,1-.025-.311,1.151,1.151,0,0,0-.58-.992,1.413,1.413,0,0,0-.639-.2A6.343,6.343,0,0,1,374.958,336.013Z" transform="translate(-184.947 -150.738)" fill="#fff"/>
        <path id="Path_15661" data-name="Path 15661" d="M358.408,311.343c.252-.067.513-.1.765-.151a1.529,1.529,0,0,1,1.816,1.176,1.555,1.555,0,0,1,.034.312,1.194,1.194,0,0,0,.546,1.026,1.339,1.339,0,0,0,.63.21c.252.05.513.084.765.15-.252.076-.513.11-.765.161a1.5,1.5,0,0,1-.841-.085,1.571,1.571,0,0,1-.958-1.454,1.154,1.154,0,0,0-.58-.992,1.441,1.441,0,0,0-.639-.193A7.64,7.64,0,0,1,358.408,311.343Z" transform="translate(-182.308 -146.805)" fill="#fff"/>
        <path id="Path_15662" data-name="Path 15662" d="M393.588,347.293c.261-.067.513-.1.765-.151a1.529,1.529,0,0,1,1.816,1.176,1.555,1.555,0,0,1,.034.312,1.21,1.21,0,0,0,.546,1.025,1.378,1.378,0,0,0,.63.21c.261.05.513.084.765.151-.252.066-.508.119-.765.16a1.512,1.512,0,0,1-.841-.084,1.555,1.555,0,0,1-.95-1.455,1.193,1.193,0,0,0-.58-.991,1.5,1.5,0,0,0-.647-.194C394.1,347.4,393.857,347.368,393.588,347.293Z" transform="translate(-187.917 -152.537)" fill="#fff"/>
        <path id="Path_15663" data-name="Path 15663" d="M309.932,259.616c-.126.227-.286.43-.429.647a1.519,1.519,0,0,1-2.362.261,1.18,1.18,0,0,0-1.11-.336,1.422,1.422,0,0,0-.6.294,7.513,7.513,0,0,1-.647.43c.134-.227.286-.43.429-.647a1.531,1.531,0,0,1,.664-.546,1.562,1.562,0,0,1,1.681.353,1.186,1.186,0,0,0,1.118.294,1.469,1.469,0,0,0,.588-.319A7.9,7.9,0,0,0,309.932,259.616Z" transform="translate(-173.76 -138.587)" fill="#fff"/>
        <path id="Path_15664" data-name="Path 15664" d="M297.862,239.366c-.126.227-.286.43-.429.647a1.519,1.519,0,0,1-2.362.261,1.171,1.171,0,0,0-1.11-.336,1.422,1.422,0,0,0-.6.294,7.508,7.508,0,0,1-.647.43c.134-.227.286-.43.429-.647a1.532,1.532,0,0,1,.664-.546,1.562,1.562,0,0,1,1.681.353,1.178,1.178,0,0,0,1.118.294,1.469,1.469,0,0,0,.588-.319C297.434,239.651,297.635,239.492,297.862,239.366Z" transform="translate(-171.836 -135.359)" fill="#fff"/>
        <path id="Path_15665" data-name="Path 15665" d="M358.939,294.866c-.135.235-.286.437-.429.647a1.586,1.586,0,0,1-.647.564,1.539,1.539,0,0,1-1.681-.3,1.2,1.2,0,0,0-1.11-.336,1.4,1.4,0,0,0-.6.294c-.219.143-.42.3-.647.429.126-.227.286-.429.429-.647a1.51,1.51,0,0,1,.656-.546,1.587,1.587,0,0,1,1.681.353,1.162,1.162,0,0,0,1.11.294,1.523,1.523,0,0,0,.6-.311C358.535,295.161,358.737,295,358.939,294.866Z" transform="translate(-181.578 -144.208)" fill="#fff"/>
        <path id="Path_15666" data-name="Path 15666" d="M328.392,229.236c-.126.227-.286.43-.429.647a1.541,1.541,0,0,1-.639.555,1.562,1.562,0,0,1-1.723-.294,1.2,1.2,0,0,0-1.11-.345,1.468,1.468,0,0,0-.6.294c-.219.143-.42.3-.647.437.126-.235.286-.437.429-.656a1.466,1.466,0,0,1,.664-.538,1.565,1.565,0,0,1,1.681.353,1.211,1.211,0,0,0,1.143.32,1.582,1.582,0,0,0,.588-.319C328.006,229.522,328.165,229.363,328.392,229.236Z" transform="translate(-176.703 -133.744)" fill="#fff"/>
        <path id="Path_15667" data-name="Path 15667" d="M307.212,214.277c-.126.227-.286.428-.429.647a1.621,1.621,0,0,1-.639.563,1.565,1.565,0,0,1-1.723-.3,1.176,1.176,0,0,0-1.11-.336,1.356,1.356,0,0,0-.6.294c-.219.143-.42.3-.647.429.126-.227.286-.429.429-.647a1.48,1.48,0,0,1,.664-.546,1.562,1.562,0,0,1,1.681.353,1.169,1.169,0,0,0,1.118.294,1.47,1.47,0,0,0,.588-.319C306.784,214.562,306.977,214.4,307.212,214.277Z" transform="translate(-173.327 -131.359)" fill="#fff"/>
        <path id="Path_15668" data-name="Path 15668" d="M327.627,248.278c.076.251.1.512.16.765a1.68,1.68,0,0,1-.059.841,1.556,1.556,0,0,1-1.429,1,1.2,1.2,0,0,0-1.026.546,1.333,1.333,0,0,0-.21.63c-.059.251-.084.512-.16.765-.067-.252-.1-.513-.151-.765a1.425,1.425,0,0,1,.084-.841,1.564,1.564,0,0,1,1.454-.959,1.159,1.159,0,0,0,.992-.58,1.549,1.549,0,0,0,.193-.639C327.526,248.791,327.56,248.53,327.627,248.278Z" transform="translate(-176.938 -136.781)" fill="#fff"/>
        <path id="Path_15669" data-name="Path 15669" d="M320.416,301.548c.067.252.1.513.151.765a1.529,1.529,0,0,1-1.177,1.815,1.552,1.552,0,0,1-.311.034,1.19,1.19,0,0,0-1.026.546,1.425,1.425,0,0,0-.21.63c-.05.252-.084.513-.151.765-.076-.252-.109-.513-.16-.765a1.489,1.489,0,0,1,.084-.841,1.578,1.578,0,0,1,1.454-.958,1.155,1.155,0,0,0,.992-.58,1.444,1.444,0,0,0,.193-.639C320.307,302.061,320.366,301.8,320.416,301.548Z" transform="translate(-175.788 -145.274)" fill="#fff"/>
        <path id="Path_15670" data-name="Path 15670" d="M390.358,326.228c.076.252.109.5.16.757a1.535,1.535,0,0,1-1.488,1.857,1.194,1.194,0,0,0-1.025.546,1.3,1.3,0,0,0-.21.63c-.05.252-.084.5-.151.757-.076-.252-.109-.5-.16-.757a1.528,1.528,0,0,1,.084-.841,1.58,1.58,0,0,1,1.454-.95,1.194,1.194,0,0,0,.992-.58,1.509,1.509,0,0,0,.193-.647C390.266,326.732,390.3,326.48,390.358,326.228Z" transform="translate(-186.94 -149.208)" fill="#fff"/>
        <path id="Path_15671" data-name="Path 15671" d="M357.956,255.658c.067.251.1.5.151.765a1.54,1.54,0,0,1-.059.841,1.564,1.564,0,0,1-1.429,1.009,1.19,1.19,0,0,0-1.026.546,1.426,1.426,0,0,0-.21.63c-.05.252-.084.5-.151.765-.076-.261-.1-.513-.16-.765a1.53,1.53,0,0,1,1.226-1.783,1.553,1.553,0,0,1,.312-.024,1.172,1.172,0,0,0,.992-.58,1.344,1.344,0,0,0,.193-.639C357.855,256.162,357.881,255.909,357.956,255.658Z" transform="translate(-181.773 -137.958)" fill="#fff"/>
        <path id="Path_15672" data-name="Path 15672" d="M357.957,341.158c.067.251.1.5.151.757a1.535,1.535,0,0,1-1.488,1.857,1.194,1.194,0,0,0-1.026.546,1.4,1.4,0,0,0-.21.63c-.05.252-.084.5-.151.757-.076-.252-.1-.5-.16-.757a1.516,1.516,0,0,1,1.538-1.79,1.194,1.194,0,0,0,.992-.58,1.34,1.34,0,0,0,.193-.647C357.856,341.688,357.881,341.435,357.957,341.158Z" transform="translate(-181.773 -151.588)" fill="#fff"/>
        <path id="Path_15673" data-name="Path 15673" d="M374.407,292.207c.076.252.1.513.151.765a1.516,1.516,0,0,1-1.479,1.85,1.2,1.2,0,0,0-1.026.546,1.334,1.334,0,0,0-.21.63c-.059.251-.084.512-.16.765-.067-.252-.1-.513-.151-.765a1.425,1.425,0,0,1,.084-.841,1.563,1.563,0,0,1,1.446-.959,1.167,1.167,0,0,0,1-.58,1.55,1.55,0,0,0,.193-.639C374.306,292.721,374.365,292.46,374.407,292.207Z" transform="translate(-184.396 -143.784)" fill="#fff"/>
        <path id="Path_15674" data-name="Path 15674" d="M291.048,303.457c.076.252.1.505.151.757a1.519,1.519,0,0,1-1.479,1.858,1.186,1.186,0,0,0-1.026.546,1.3,1.3,0,0,0-.21.63c-.059.252-.084.5-.16.757-.067-.252-.1-.5-.151-.757a1.462,1.462,0,0,1,.084-.841,1.565,1.565,0,0,1,1.446-.95,1.2,1.2,0,0,0,1-.58,1.548,1.548,0,0,0,.193-.647C290.947,303.962,290.98,303.71,291.048,303.457Z" transform="translate(-171.107 -145.578)" fill="#fff"/>
        <path id="Path_15675" data-name="Path 15675" d="M292.667,255.658q.095.378.151.765a1.532,1.532,0,0,1-.05.841,1.564,1.564,0,0,1-1.429,1.009,1.182,1.182,0,0,0-1.026.546,1.333,1.333,0,0,0-.21.63c-.059.252-.084.5-.16.765-.067-.261-.1-.513-.151-.765a1.487,1.487,0,0,1,.076-.841,1.578,1.578,0,0,1,1.454-.958,1.185,1.185,0,0,0,1-.581,1.549,1.549,0,0,0,.193-.639C292.566,256.162,292.6,255.909,292.667,255.658Z" transform="translate(-171.365 -137.958)" fill="#fff"/>
        <path id="Path_15676" data-name="Path 15676" d="M310.106,224.587c.067.253.1.505.151.766a1.54,1.54,0,0,1-.059.841,1.564,1.564,0,0,1-1.429,1.009,1.19,1.19,0,0,0-1.025.546,1.425,1.425,0,0,0-.21.63c-.05.251-.084.5-.151.765-.076-.261-.1-.513-.16-.765a1.526,1.526,0,0,1,.084-.841,1.587,1.587,0,0,1,1.454-.95,1.172,1.172,0,0,0,.992-.58,1.344,1.344,0,0,0,.193-.639C310.006,225.067,310.031,224.84,310.106,224.587Z" transform="translate(-174.145 -133.004)" fill="#fff"/>
        <path id="Path_15677" data-name="Path 15677" d="M305.426,272.617c.067.261.1.513.151.766a1.535,1.535,0,0,1-1.488,1.857,1.194,1.194,0,0,0-1.026.546,1.4,1.4,0,0,0-.21.63c-.05.252-.084.5-.151.757-.076-.252-.109-.5-.16-.757a1.528,1.528,0,0,1,.084-.841,1.59,1.59,0,0,1,1.454-.95,1.194,1.194,0,0,0,.992-.58,1.509,1.509,0,0,0,.193-.647C305.317,273.131,305.368,272.878,305.426,272.617Z" transform="translate(-173.398 -140.661)" fill="#fff"/>
        <path id="Path_15678" data-name="Path 15678" d="M347.456,279.078c.067.252.1.513.151.765a1.529,1.529,0,0,1-1.177,1.815,1.55,1.55,0,0,1-.311.034,1.208,1.208,0,0,0-1.025.546,1.461,1.461,0,0,0-.21.63c-.05.252-.084.513-.151.765-.076-.252-.1-.513-.16-.765a1.5,1.5,0,0,1,.084-.841,1.578,1.578,0,0,1,1.454-.958,1.155,1.155,0,0,0,.992-.58,1.335,1.335,0,0,0,.193-.639C347.372,279.591,347.372,279.33,347.456,279.078Z" transform="translate(-180.099 -141.691)" fill="#fff"/>
        <path id="Path_15679" data-name="Path 15679" d="M308.607,333.017c.067.261.1.513.151.765a1.519,1.519,0,0,1-1.479,1.858,1.17,1.17,0,0,0-1.026.546,1.4,1.4,0,0,0-.219.622q-.057.387-.151.765c-.067-.252-.1-.5-.151-.765a1.488,1.488,0,0,1,.076-.841,1.565,1.565,0,0,1,1.454-.95,1.2,1.2,0,0,0,1-.58,1.633,1.633,0,0,0,.193-.647C308.506,333.531,308.54,333.278,308.607,333.017Z" transform="translate(-173.906 -150.29)" fill="#fff"/>
        <path id="Path_15680" data-name="Path 15680" d="M340.8,263.576c.134-.227.294-.429.437-.647a1.482,1.482,0,0,1,.639-.555,1.546,1.546,0,0,1,1.681.294,1.221,1.221,0,0,0,1.118.345,1.441,1.441,0,0,0,.588-.294c.219-.151.42-.3.656-.437-.134.235-.294.437-.437.656a1.5,1.5,0,0,1-.656.538,1.582,1.582,0,0,1-1.681-.353,1.192,1.192,0,0,0-1.11-.294,1.552,1.552,0,0,0-.588.319A7.573,7.573,0,0,1,340.8,263.576Z" transform="translate(-179.501 -139.008)" fill="#fff"/>
        <path id="Path_15681" data-name="Path 15681" d="M316.288,285.781c.126-.227.286-.429.429-.647a1.521,1.521,0,0,1,2.362-.261,1.171,1.171,0,0,0,1.11.336,1.427,1.427,0,0,0,.6-.294,7.082,7.082,0,0,1,.647-.429c-.134.226-.286.429-.429.646a1.531,1.531,0,0,1-2.37.194,1.169,1.169,0,0,0-1.11-.3,1.565,1.565,0,0,0-.588.32C316.717,285.5,316.515,285.655,316.288,285.781Z" transform="translate(-175.594 -142.544)" fill="#fff"/>
        <path id="Path_15682" data-name="Path 15682" d="M299.668,318.5c.134-.235.294-.437.437-.647a1.521,1.521,0,0,1,2.1-.472,1.546,1.546,0,0,1,.263.211,1.2,1.2,0,0,0,1.11.336,1.427,1.427,0,0,0,.6-.294,7.068,7.068,0,0,1,.647-.429c-.135.226-.286.429-.429.646a1.521,1.521,0,0,1-2.113.405,1.494,1.494,0,0,1-.249-.211,1.177,1.177,0,0,0-1.118-.3,1.442,1.442,0,0,0-.588.311C300.105,318.215,299.87,318.366,299.668,318.5Z" transform="translate(-172.944 -147.76)" fill="#fff"/>
        <path id="Path_15683" data-name="Path 15683" d="M306.848,352.5c.135-.227.294-.43.437-.647a1.482,1.482,0,0,1,.639-.555,1.562,1.562,0,0,1,1.681.294,1.194,1.194,0,0,0,1.11.345,1.447,1.447,0,0,0,.6-.3c.21-.143.412-.294.647-.429-.134.235-.286.437-.429.647a1.538,1.538,0,0,1-.664.546,1.58,1.58,0,0,1-1.681-.354,1.2,1.2,0,0,0-1.11-.294,1.576,1.576,0,0,0-.588.319A5.911,5.911,0,0,1,306.848,352.5Z" transform="translate(-174.089 -153.184)" fill="#fff"/>
        <path id="Path_15684" data-name="Path 15684" d="M339,315.134c.126-.227.286-.429.429-.647a1.541,1.541,0,0,1,.639-.555,1.562,1.562,0,0,1,1.723.294,1.193,1.193,0,0,0,1.11.345,1.534,1.534,0,0,0,.6-.294c.21-.143.412-.3.647-.437-.134.235-.286.437-.429.656a1.466,1.466,0,0,1-.664.538,1.565,1.565,0,0,1-1.681-.353,1.208,1.208,0,0,0-1.118-.294,1.553,1.553,0,0,0-.588.319C339.427,314.848,339.225,315.007,339,315.134Z" transform="translate(-179.214 -147.226)" fill="#fff"/>
        <path id="Path_15685" data-name="Path 15685" d="M361.118,328.675c.126-.226.286-.429.429-.646a1.587,1.587,0,0,1,.639-.555,1.562,1.562,0,0,1,1.681.294,1.2,1.2,0,0,0,1.11.345,1.478,1.478,0,0,0,.6-.294c.219-.144.42-.3.647-.437-.126.235-.286.437-.429.656a1.428,1.428,0,0,1-.664.538,1.565,1.565,0,0,1-1.681-.353,1.208,1.208,0,0,0-1.118-.294,1.553,1.553,0,0,0-.588.319A5.78,5.78,0,0,1,361.118,328.675Z" transform="translate(-182.74 -149.387)" fill="#fff"/>
        <path id="Path_15686" data-name="Path 15686" d="M323.908,338.953c.126-.226.286-.429.429-.646a1.482,1.482,0,0,1,.639-.555,1.562,1.562,0,0,1,1.723.294,1.193,1.193,0,0,0,1.11.345,1.448,1.448,0,0,0,.6-.3c.21-.143.412-.294.647-.429-.135.235-.286.437-.429.647a1.473,1.473,0,0,1-.664.546,1.562,1.562,0,0,1-1.681-.353,1.212,1.212,0,0,0-1.118-.294,1.576,1.576,0,0,0-.588.319C324.337,338.667,324.135,338.828,323.908,338.953Z" transform="translate(-176.808 -151.023)" fill="#fff"/>
        <path id="Path_15687" data-name="Path 15687" d="M371.908,352.494c.135-.227.286-.43.429-.647a1.53,1.53,0,0,1,.639-.555,1.563,1.563,0,0,1,1.723.294,1.2,1.2,0,0,0,1.11.345,1.478,1.478,0,0,0,.6-.294c.219-.151.42-.3.647-.437-.126.235-.286.437-.429.656a1.5,1.5,0,0,1-.656.538,1.573,1.573,0,0,1-1.681-.353,1.2,1.2,0,0,0-1.11-.294,1.529,1.529,0,0,0-.6.319C372.328,352.208,372.127,352.368,371.908,352.494Z" transform="translate(-184.461 -153.182)" fill="#fff"/>
        <path id="Path_15688" data-name="Path 15688" d="M377.318,315.9c.126-.235.286-.437.429-.656a1.586,1.586,0,0,1,.639-.555,1.563,1.563,0,0,1,1.723.294,1.2,1.2,0,0,0,1.11.345,1.478,1.478,0,0,0,.6-.294c.219-.144.42-.3.647-.437-.126.235-.286.437-.429.656a1.429,1.429,0,0,1-.664.538,1.565,1.565,0,0,1-1.681-.353,1.2,1.2,0,0,0-1.11-.294,1.529,1.529,0,0,0-.6.319C377.747,315.616,377.545,315.776,377.318,315.9Z" transform="translate(-185.323 -147.347)" fill="#fff"/>
        <path id="Path_15689" data-name="Path 15689" d="M289.658,343.641c.134-.235.286-.436.429-.656a1.6,1.6,0,0,1,.639-.555,1.564,1.564,0,0,1,1.723.3,1.2,1.2,0,0,0,1.11.345,1.469,1.469,0,0,0,.6-.3c.219-.143.42-.3.647-.436-.126.235-.286.436-.429.656a1.451,1.451,0,0,1-.656.538,1.573,1.573,0,0,1-1.681-.353,1.176,1.176,0,0,0-1.11-.286,1.405,1.405,0,0,0-.6.311C290.087,343.348,289.868,343.507,289.658,343.641Z" transform="translate(-171.348 -151.769)" fill="#fff"/>
        <path id="Path_15690" data-name="Path 15690" d="M286.908,286.553c.126-.227.286-.43.429-.647a1.616,1.616,0,0,1,.639-.564,1.565,1.565,0,0,1,1.723.3,1.176,1.176,0,0,0,1.11.336,1.269,1.269,0,0,0,.6-.294c.219-.143.42-.3.647-.429a7.078,7.078,0,0,1-.429.647,1.51,1.51,0,0,1-.656.546,1.57,1.57,0,0,1-1.681-.353,1.18,1.18,0,0,0-1.11-.294,1.551,1.551,0,0,0-.6.319C287.345,286.267,287.143,286.426,286.908,286.553Z" transform="translate(-170.91 -142.668)" fill="#fff"/>
        <path id="Path_15691" data-name="Path 15691" d="M315.588,205.592c-.311,1.571-7.405,11.919-14.534,11.826-2.32-.042-2.69-12.718-2.69-12.718l-.244-.925-3.362-13.012,15.072-10.4,2.185-1.379s.681,3.623,1.5,8.137a4.733,4.733,0,0,0,.109.647c.034.227.109.488.143.731.134.672.261,1.362.378,2.051.092.521.177,1.026.252,1.58s.16,1.093.252,1.681A86.59,86.59,0,0,1,315.588,205.592Z" transform="translate(-172.161 -125.735)" fill="#e4e4e4"/>
        <path id="Path_15692" data-name="Path 15692" d="M313.511,187.125a26.991,26.991,0,0,1-15.391,16.651l-3.362-13.011,15.072-10.4,2.185-1.379S312.7,182.611,313.511,187.125Z" transform="translate(-172.161 -125.735)" fill="#263238"/>
        <path id="Path_15693" data-name="Path 15693" d="M272.774,164.559c-.622,23.587,13.449,26.621,18.493,26.747,4.615.118,20.35-.067,23.41-23.461s-7.717-31.1-18.257-31.942S273.4,140.972,272.774,164.559Z" transform="translate(-168.653 -118.854)" fill="#e4e4e4"/>
        <path id="Path_15694" data-name="Path 15694" d="M276.844,161.012c.555-.092,1.042-.261,1.58-.4a2.7,2.7,0,0,0,1.53-.723.841.841,0,0,0-.042-1.026,2.09,2.09,0,0,0-2.076-.4,3.039,3.039,0,0,0-1.866,1.16.9.9,0,0,0,.874,1.387Z" transform="translate(-169.142 -122.444)" fill="#263238"/>
        <path id="Path_15695" data-name="Path 15695" d="M295.154,165.14a14.717,14.717,0,0,1-1.614-.269,2.641,2.641,0,0,1-1.58-.58.84.84,0,0,1-.05-1.025,2.091,2.091,0,0,1,2.034-.58,3.038,3.038,0,0,1,1.959,1,.891.891,0,0,1-.748,1.454Z" transform="translate(-171.683 -123.125)" fill="#263238"/>
        <path id="Path_15696" data-name="Path 15696" d="M280.9,170.645c0-.059-.118.084-.118.151.16,1.6.076,3.455-1.337,4.085-.05,0,0,.1,0,.092C281.209,174.6,281.3,172.133,280.9,170.645Z" transform="translate(-169.716 -124.403)" fill="#263238"/>
        <path id="Path_15697" data-name="Path 15697" d="M278.979,168.768c-2.589,0-2.446,5.161-.042,5.186S281.139,168.793,278.979,168.768Z" transform="translate(-169.344 -124.106)" fill="#263238"/>
        <path id="Path_15698" data-name="Path 15698" d="M277.548,169.179c-.4.286-.79.79-1.286.841s-1-.5-1.379-1.026c0-.05-.076,0-.076.059,0,.992.361,2.017,1.311,2.177s1.488-.714,1.681-1.681C277.859,169.339,277.708,169.061,277.548,169.179Z" transform="translate(-168.981 -124.138)" fill="#263238"/>
        <path id="Path_15699" data-name="Path 15699" d="M293.13,186.974a2.6,2.6,0,0,1-1.387.9,4.277,4.277,0,0,1-1.681-.471.059.059,0,0,0-.079.027.06.06,0,0,0,0,.057,2.161,2.161,0,0,0,2.017.941,1.683,1.683,0,0,0,1.311-1.379C293.281,186.957,293.189,186.923,293.13,186.974Z" transform="translate(-171.399 -127.004)" fill="#263238"/>
        <path id="Path_15700" data-name="Path 15700" d="M283.666,176.35s-.185,2.4-.126,3.53a23.335,23.335,0,0,1,6.556.572c.5.134.471-.277-.1-.58a9.622,9.622,0,0,0-5.539-1.026c-.1-.311.361-3.7.185-3.7a9.864,9.864,0,0,0-2.522.723c.252-5.043,1.311-9.952,1.488-14.954a.152.152,0,0,0-.141-.161.15.15,0,0,0-.153.1c-1.479,5.1-1.9,10.869-2.295,16.047C280.967,177.544,283.229,176.569,283.666,176.35Z" transform="translate(-169.971 -122.828)" fill="#263238"/>
        <path id="Path_15701" data-name="Path 15701" d="M296.372,170.681a5.121,5.121,0,0,0-2.967-.235,4.181,4.181,0,0,0-1.479.656,3.808,3.808,0,0,0-1.1,1.294l-.5.916,1.017-.109a10.232,10.232,0,0,1,2.152,0,4.415,4.415,0,0,1,2.085.74,3.226,3.226,0,0,0-1.9-1.538,6.031,6.031,0,0,0-2.454-.277l.521.841a3.75,3.75,0,0,1,1.9-1.589A11.329,11.329,0,0,1,296.372,170.681Z" transform="translate(-171.455 -124.354)" fill="#263238"/>
        <path id="Path_15702" data-name="Path 15702" d="M293.452,175.213a8.536,8.536,0,0,1-2.177-.841c-.16-.1-.773-.563-.74-.7a4.741,4.741,0,0,1,.4-1.126,3.094,3.094,0,0,0-.63,1.093,1.556,1.556,0,0,0,.79,1.051A4.528,4.528,0,0,0,293.452,175.213Z" transform="translate(-171.452 -124.708)" fill="#263238"/>
        <path id="Path_15703" data-name="Path 15703" d="M287.408,183.254s1.463,2.1,3.144,2.354c1.933.3,2.16-1.438,0-2.429A5.826,5.826,0,0,0,287.408,183.254Z" transform="translate(-170.99 -126.369)" fill="#263238"/>
        <path id="Path_15704" data-name="Path 15704" d="M290.77,185.82a3.916,3.916,0,0,1-1.942-1.034c.4-.6,1.328-1.261,3.4-.143C292.535,185.349,292,185.971,290.77,185.82Z" transform="translate(-171.216 -126.54)" fill="#ff99ba"/>
        <path id="Path_15705" data-name="Path 15705" d="M314.723,168.177c-3.883.488-5.178-7.64-5.178-7.64s-7.918.4-11.087-10.86a17.578,17.578,0,0,0,3.968,9.246s-14.046-.841-20.493-12.214c0,0,2.639,5.842,4.943,7.851,0,0-5.943-1.346-9.028-5.969,0,0-2.118,6.868-3.909,8.826,0,0-.614-24.469,22.158-22.973,0,0,14.223.252,19.863,11.23S314.723,168.177,314.723,168.177Z" transform="translate(-168.842 -118.623)" fill="#263238"/>
        <path id="Path_15706" data-name="Path 15706" d="M317.963,174.762s4.7-7.659,8.145-6.027.219,12.524-3.606,14.214a3.985,3.985,0,0,1-5.386-1.659c-.027-.051-.053-.1-.078-.156Z" transform="translate(-175.713 -124.064)" fill="#e4e4e4"/>
        <path id="Path_15707" data-name="Path 15707" d="M325.511,172.468c.059,0,.076.076,0,.1-2.681,1.279-3.968,3.909-4.825,6.615a2.245,2.245,0,0,1,3.253-.841c.076.042,0,.16-.067.151a2.438,2.438,0,0,0-2.639,1.017,11.22,11.22,0,0,0-1.16,2.253c-.118.252-.563.151-.488-.134a.152.152,0,0,1,0-.067C319.35,178.091,321.771,173.048,325.511,172.468Z" transform="translate(-176.117 -124.695)" fill="#263238"/>
        <path id="Path_15708" data-name="Path 15708" d="M320.908,184.008a1.1,1.1,0,1,0,1.038-1.161h0a1.092,1.092,0,0,0-1.035,1.147Z" transform="translate(-176.33 -126.35)" fill="#fff"/>
        <path id="Path_15709" data-name="Path 15709" d="M324.048,181.917a.706.706,0,1,0,.67-.741h-.006a.7.7,0,0,0-.665.73Z" transform="translate(-176.83 -126.084)" fill="#fff"/>
        <rect id="Rectangle_17384" data-name="Rectangle 17384" width="12.533" height="38.801" transform="translate(58.518 104.544) rotate(-13.08)" fill="#ebebeb"/>
        <path id="Path_15710" data-name="Path 15710" d="M189.878,117.024a52.751,52.751,0,1,0,.046-.011Zm21.452,92.354a41.827,41.827,0,1,1,31.264-50.216l.006.025A41.828,41.828,0,0,1,211.33,209.379Z" transform="translate(-148.91 -115.635)" fill="#a6a6a6"/>
        <rect id="Rectangle_17385" data-name="Rectangle 17385" width="18.947" height="56.815" rx="6.27" transform="translate(61.57 131.902) rotate(-13.08)" fill="#263238"/>
        <g id="Group_11647" data-name="Group 11647" transform="translate(11.123 11.154)" opacity="0.3">
          <path id="Path_15711" data-name="Path 15711" d="M244.709,161.287a42.541,42.541,0,1,1-.008-.03Z" transform="translate(-162.143 -128.905)" fill="#fff"/>
          <path id="Path_15712" data-name="Path 15712" d="M253.3,181.448a41.844,41.844,0,0,1-43.71,39.456Z" transform="translate(-169.706 -137.281)" fill="#ebebeb"/>
          <path id="Path_15713" data-name="Path 15713" d="M226.5,135.521l-59.874,54.041a41.609,41.609,0,0,1-3.362-9.339,41.012,41.012,0,0,1-1.042-11.323L206.425,129A41.758,41.758,0,0,1,226.5,135.521Z" transform="translate(-162.148 -128.92)" fill="#ebebeb"/>
          <path id="Path_15714" data-name="Path 15714" d="M246.837,161.239,189.8,212.708a41.794,41.794,0,0,1-7.086-4.144l60.732-54.806A40.428,40.428,0,0,1,246.837,161.239Z" transform="translate(-165.423 -132.867)" fill="#ebebeb"/>
          <path id="Path_15715" data-name="Path 15715" d="M232.329,140.636,170.749,196.2c-.286-.42-.572-.841-.841-1.269l61.228-55.252A13.385,13.385,0,0,1,232.329,140.636Z" transform="translate(-163.381 -130.622)" fill="#ebebeb"/>
          <path id="Path_15716" data-name="Path 15716" d="M193.047,130.837l-27.319,24.647c.462-1.168.983-2.312,1.555-3.422L189.5,132.005C190.651,131.578,191.836,131.182,193.047,130.837Z" transform="translate(-162.714 -129.213)" fill="#ebebeb"/>
        </g>
        <path id="Path_15717" data-name="Path 15717" d="M175.313,179.352a1.12,1.12,0,0,1,0-.168c-.151-.841.109.8,0,.252a18.236,18.236,0,0,1-.219-1.942,40.632,40.632,0,0,1,0-6.859c0-.328.059-.647.084-.967,0-.1-.092.757,0,.076l.076-.588c.1-.757.227-1.513.378-2.261a37.229,37.229,0,0,1,1.286-4.867c.126-.378.269-.757.4-1.135.177-.513-.235.563.042-.109l.277-.664c.361-.841.757-1.681,1.177-2.522s.967-1.74,1.5-2.572c.252-.387.5-.765.765-1.143.445-.647-.21.261.134-.193l.5-.656a38.483,38.483,0,0,1,5.111-5.3s.387-.311.1-.076.151-.126.2-.168l.841-.664c.563-.42,1.135-.841,1.723-1.21a43.156,43.156,0,0,1,3.816-2.278A3.158,3.158,0,1,0,190.141,138a39.558,39.558,0,0,0-18.56,20.241,43.45,43.45,0,0,0-2.9,18.652,31.167,31.167,0,0,0,.538,4.2,3.161,3.161,0,0,0,3.917,2.127,3.253,3.253,0,0,0,2.127-3.926Z" transform="translate(-152.047 -119.122)" fill="#fff"/>
        <path id="Path_15718" data-name="Path 15718" d="M178.759,197.508a3.151,3.151,0,1,1-.007-.021Z" transform="translate(-152.702 -128.334)" fill="#fff"/>
        <path id="Path_15719" data-name="Path 15719" d="M325.842,226.708c7.565,27.353,11.2,54.814,7.01,68.978-2.673,9.028-9.12,15.13-13.222,17.148-9.591,4.742-41.407-1.983-62.136-6.153-5.094-1.025,6.918-42.071,12.037-39.894,7.565,3.2,30.723,7.523,31.362,7.733,1.37.471,4.2-29.21,6.2-46.61C309.862,203.668,321.479,210.914,325.842,226.708Z" transform="translate(-166.024 -131.031)" fill="#e4e4e4"/>
        <path id="Path_15720" data-name="Path 15720" d="M209.589,266.839c-2.253,3.673.672,7.036.672,7.036a9.179,9.179,0,0,0-4.3,4.532c-1.353,3.53,3.589,7.2,3.589,7.2a11.272,11.272,0,0,0-3.774,5.5c-.958,3.514,3.505,7.927,3.505,7.927A9.923,9.923,0,0,0,209,305.96c2.228,5.976,11.768,7.935,17.82,9.246s24.444-.672,27.991-.689l8.7-38.777s-25.478-13.574-32.783-14.1C224.517,261.225,212.119,262.721,209.589,266.839Z" transform="translate(-157.954 -138.901)" fill="#e4e4e4"/>
        <path id="Path_15721" data-name="Path 15721" d="M211.6,275.44c6.725-1.1,13.332-.177,20.014.37a.118.118,0,0,1,0,.235c-6.649-.622-13.332.076-19.981-.277a.169.169,0,0,1-.151-.184A.167.167,0,0,1,211.6,275.44Z" transform="translate(-158.884 -141.029)" fill="#263238"/>
        <path id="Path_15722" data-name="Path 15722" d="M210.545,289.59a17.32,17.32,0,0,1,4.606.294q2.428.319,4.85.723,4.849.84,9.65,1.857c.143,0,.134.252,0,.227-3.228-.53-6.456-1.009-9.692-1.4-1.622-.2-3.245-.378-4.875-.555a20.751,20.751,0,0,1-4.564-.7.235.235,0,0,1,.025-.445Z" transform="translate(-158.708 -143.36)" fill="#263238"/>
        <path id="Path_15723" data-name="Path 15723" d="M210.118,306.147a12.422,12.422,0,0,1,4.136.487c1.471.277,2.934.539,4.4.8,2.942.521,5.884,1.034,8.843,1.454.143,0,.126.252,0,.227-3.009-.4-6.019-.774-9.019-1.2-1.471-.21-2.95-.437-4.421-.664a11.554,11.554,0,0,1-3.951-.951.083.083,0,0,1-.034-.113A.082.082,0,0,1,210.118,306.147Z" transform="translate(-158.66 -145.997)" fill="#263238"/>
        <path id="Path_15724" data-name="Path 15724" d="M217.816,263.058c-3.051.4-6.548,1.067-8.523,3.664a5.512,5.512,0,0,0-1.252,3.942,5.3,5.3,0,0,0,1.883,3.4h0a6.809,6.809,0,0,0-4.657,5.548,4.64,4.64,0,0,0,1.2,3.505c.42.5.9.933,1.362,1.387s.975.841,1.454,1.236a12.808,12.808,0,0,0-1.454,1.328,10.271,10.271,0,0,0-1.353,1.6,7.141,7.141,0,0,0-1.328,3.909,7.005,7.005,0,0,0,1.4,3.858,7.988,7.988,0,0,0,2.8,2.807.067.067,0,0,0,.09-.031.068.068,0,0,0-.014-.078,11.53,11.53,0,0,1-2.278-2.866,7.367,7.367,0,0,1-1.152-3.816,7.644,7.644,0,0,1,1.261-3.589,18.836,18.836,0,0,1,1.16-1.681,14.623,14.623,0,0,0,1.16-1.4s-1-1.059-1.353-1.513-.7-.941-1.017-1.437a4.639,4.639,0,0,1-.841-3.253,6,6,0,0,1,1.412-2.892c.706-.841,1.622-1.5,2.362-2.328a.379.379,0,0,0,.042-.294c-1.681-2.623-1.471-5.111.328-7.052a11.422,11.422,0,0,1,3.169-2.295,28.251,28.251,0,0,1,4.2-1.521C217.933,263.192,217.908,263.05,217.816,263.058Z" transform="translate(-157.876 -139.137)" fill="#263238"/>
        <path id="Path_15725" data-name="Path 15725" d="M275.947,329.055c-1.79-.556-3.682-.841-5.514-1.245s-3.682-.782-5.531-1.152-3.774-.74-5.657-1.092-3.64-.749-5.472-.967a22.418,22.418,0,0,0-5.312.118q-2.665.3-5.346.429a77.344,77.344,0,0,1-10.8-.235,73.059,73.059,0,0,1-12.029-2.143c-.084,0-.109.1,0,.126a65.4,65.4,0,0,0,21.208,3.362c1.782,0,3.572-.109,5.346-.286a47.439,47.439,0,0,1,5.346-.454,34.342,34.342,0,0,1,5.615.841c1.858.345,3.707.7,5.565,1.026,2.1.37,4.2.748,6.313,1.076s4.2.8,6.271.95A.192.192,0,0,0,275.947,329.055Z" transform="translate(-160.277 -148.656)" fill="#263238"/>
        <path id="Path_15726" data-name="Path 15726" d="M309.819,286.317c-2.69-.916-5.531-1.488-8.3-2.152s-5.565-1.3-8.347-1.933c-5.312-1.2-10.692-2.219-15.971-3.69-1.387-.387-2.757-.841-4.11-1.295a18.817,18.817,0,0,1-2.009-.841c-.664-.329-1.429-.53-2.085-.841-.076-.05-.135.066-.059.118.53.328,1.017.723,1.564,1.042s1.21.639,1.832.925a34.514,34.514,0,0,0,3.488,1.37c2.471.841,5.043,1.421,7.565,2.009q8.322,1.9,16.669,3.724c1.563.336,3.135.672,4.707.983s3.287.7,4.951.883a.16.16,0,0,0,.2-.112A.159.159,0,0,0,309.819,286.317Z" transform="translate(-168.04 -141.129)" fill="#263238"/>
        <path id="Path_15727" data-name="Path 15727" d="M307.168,265.95l38.448,5.228s-7.027-39.969-14.5-53.209c-7.372-13.063-15.509-4.43-18.61,11.373C309.026,246.86,307.168,265.95,307.168,265.95Z" transform="translate(-174.14 -130.934)" fill="#37474f"/>
        <path id="Path_15728" data-name="Path 15728" d="M343.2,274.7c-1.076-.251-2.177-.411-3.253-.646s-2.11-.4-3.169-.564c-2.16-.335-4.329-.639-6.5-.932-4.27-.589-8.532-1.236-12.819-1.681-2.438-.269-4.867-.63-7.3-.841a.067.067,0,0,0,0,.134c4.245.992,8.574,1.732,12.878,2.429s8.54,1.353,12.827,1.824c1.2.126,2.4.286,3.615.345s2.48.168,3.715.193a.131.131,0,0,0,.008-.261Z" transform="translate(-174.605 -140.25)" fill="#263238"/>
      </g>
    </g>
  </g>
</svg>
