<svg xmlns="http://www.w3.org/2000/svg" xmlns:xlink="http://www.w3.org/1999/xlink" width="140.89" height="145" viewBox="0 0 140.89 145">
  <defs>
    <linearGradient id="linear-gradient" x1="-9.378" y1="5.543" x2="-9.368" y2="5.543" gradientUnits="objectBoundingBox">
      <stop offset="0" stop-color="#e5d57d"/>
      <stop offset="0.5" stop-color="#c3a656"/>
      <stop offset="1" stop-color="#e5d57d"/>
    </linearGradient>
    <linearGradient id="linear-gradient-2" x1="-29.889" y1="22.061" x2="-29.852" y2="22.061" xlink:href="#linear-gradient"/>
    <linearGradient id="linear-gradient-3" x1="-24.593" y1="21.573" x2="-24.564" y2="21.573" xlink:href="#linear-gradient"/>
    <linearGradient id="linear-gradient-4" x1="-34.319" y1="22.061" x2="-34.28" y2="22.061" xlink:href="#linear-gradient"/>
    <linearGradient id="linear-gradient-5" x1="-34.982" y1="21.839" x2="-34.944" y2="21.839" xlink:href="#linear-gradient"/>
    <linearGradient id="linear-gradient-6" x1="-40.542" y1="21.559" x2="-40.5" y2="21.559" xlink:href="#linear-gradient"/>
    <linearGradient id="linear-gradient-7" x1="-32.582" y1="22.023" x2="-32.549" y2="22.023" xlink:href="#linear-gradient"/>
    <linearGradient id="linear-gradient-8" x1="-169.952" y1="22.061" x2="-169.772" y2="22.061" xlink:href="#linear-gradient"/>
    <linearGradient id="linear-gradient-9" x1="-48.803" y1="42.81" x2="-48.741" y2="42.81" xlink:href="#linear-gradient"/>
    <linearGradient id="linear-gradient-10" x1="-88.574" y1="43.617" x2="-88.46" y2="43.617" xlink:href="#linear-gradient"/>
    <linearGradient id="linear-gradient-11" x1="-63.583" y1="43.617" x2="-63.505" y2="43.617" xlink:href="#linear-gradient"/>
    <linearGradient id="linear-gradient-12" x1="-92.349" y1="43.617" x2="-92.236" y2="43.617" xlink:href="#linear-gradient"/>
    <linearGradient id="linear-gradient-13" x1="-75.476" y1="43.669" x2="-75.387" y2="43.669" xlink:href="#linear-gradient"/>
    <linearGradient id="linear-gradient-14" x1="-61.08" y1="43.93" x2="-61.01" y2="43.93" xlink:href="#linear-gradient"/>
    <linearGradient id="linear-gradient-15" x1="-108.504" y1="43.681" x2="-108.377" y2="43.681" xlink:href="#linear-gradient"/>
    <linearGradient id="linear-gradient-16" x1="-81.025" y1="43.681" x2="-80.935" y2="43.681" xlink:href="#linear-gradient"/>
    <linearGradient id="linear-gradient-17" x1="-81.825" y1="43.669" x2="-81.735" y2="43.669" xlink:href="#linear-gradient"/>
    <linearGradient id="linear-gradient-18" x1="-66.046" y1="43.93" x2="-65.976" y2="43.93" xlink:href="#linear-gradient"/>
    <linearGradient id="linear-gradient-19" x1="-69.707" y1="43.674" x2="-69.634" y2="43.674" xlink:href="#linear-gradient"/>
    <linearGradient id="linear-gradient-20" x1="-335.886" y1="43.681" x2="-335.417" y2="43.681" xlink:href="#linear-gradient"/>
    <linearGradient id="linear-gradient-21" x1="-76.462" y1="43.617" x2="-76.384" y2="43.617" xlink:href="#linear-gradient"/>
    <linearGradient id="linear-gradient-22" x1="-62.338" y1="42.813" x2="-62.277" y2="42.813" xlink:href="#linear-gradient"/>
  </defs>
  <g id="Group_11670" data-name="Group 11670" transform="translate(-807.059 -18.28)">
    <g id="Group_1" data-name="Group 1" transform="translate(849.112 18.967)">
      <path id="Path_1" data-name="Path 1" d="M883.875,99.1V39.4L890,35.862v66.778Zm25.386-39.912V21.2l-3.064-1.77-3.066,1.77V59.19Zm-6.127,7h-7V25.244l-6.131,3.539-6.132,3.54-6.127,3.539v66.779l6.127,3.538L890,109.717l6.127,3.539V72.316h20.123v40.942l6.127-3.539,6.127-3.539,6.127-3.539V35.862l-6.127-3.539-6.119-3.54-6.127-3.539V66.186h-13.13Zm0,13.127V117.3l3.065,1.769,3.065-1.769V79.313ZM928.52,99.1V39.4l-6.127-3.539v66.778L928.52,99.1Z" transform="translate(-877.748 -19.435)" fill-rule="evenodd" fill="url(#linear-gradient)"/>
    </g>
    <g id="Group_5" data-name="Group 5" transform="translate(807.705 128.808)">
      <g id="Group_4" data-name="Group 4">
        <path id="Path_2" data-name="Path 2" d="M820.953,204.527v8.652h-9.5v-8.652h-3.312v20.18h3.312v-8.826h9.5v8.826h3.309v-20.18Z" transform="translate(-808.145 -204.258)" fill="url(#linear-gradient-2)"/>
        <path id="Path_3" data-name="Path 3" d="M864.834,209.082a9.755,9.755,0,0,0-3.731-3.675,10.891,10.891,0,0,0-10.4,0,9.829,9.829,0,0,0-3.748,3.675,10.947,10.947,0,0,0,0,10.64,9.8,9.8,0,0,0,3.748,3.688,10.891,10.891,0,0,0,10.4,0,9.725,9.725,0,0,0,3.731-3.688A11.047,11.047,0,0,0,864.834,209.082Zm-2.92,9.248a6.33,6.33,0,0,1-2.454,2.613,7.432,7.432,0,0,1-7.142,0,6.331,6.331,0,0,1-2.454-2.613,8.4,8.4,0,0,1-.885-3.937,8.317,8.317,0,0,1,.885-3.919,6.257,6.257,0,0,1,2.454-2.583,7.539,7.539,0,0,1,7.142,0,6.256,6.256,0,0,1,2.454,2.583,8.316,8.316,0,0,1,.888,3.919,8.4,8.4,0,0,1-.887,3.936Z" transform="translate(-823.309 -204.079)" fill="url(#linear-gradient-3)"/>
        <path id="Path_4" data-name="Path 4" d="M897.12,214.63l8.77-10.1h-4.152l-7.841,9.2v-9.2h-3.309v20.18H893.9v-9.03l7.812,9.03h4.326Z" transform="translate(-841.543 -204.258)" fill="url(#linear-gradient-4)"/>
        <path id="Path_5" data-name="Path 5" d="M938.773,204.527V217.39a4.574,4.574,0,0,1-1.206,3.45,5.462,5.462,0,0,1-6.735,0,4.565,4.565,0,0,1-1.206-3.45V204.527h-3.309v12.8a7.889,7.889,0,0,0,1.044,4.182,6.493,6.493,0,0,0,2.831,2.554,9.765,9.765,0,0,0,7.941,0,6.662,6.662,0,0,0,2.875-2.554,7.712,7.712,0,0,0,1.071-4.182v-12.8Z" transform="translate(-856.016 -204.258)" fill="url(#linear-gradient-5)"/>
        <path id="Path_6" data-name="Path 6" d="M977.323,215.739a5.448,5.448,0,0,0-2.15-1.7,25.293,25.293,0,0,0-3.268-1.1,22.233,22.233,0,0,1-2.38-.755,3.976,3.976,0,0,1-1.436-.944,2.119,2.119,0,0,1-.566-1.525,2.528,2.528,0,0,1,.9-2.091,3.587,3.587,0,0,1,2.324-.726,3.863,3.863,0,0,1,2.524.785,2.653,2.653,0,0,1,1.047,1.888h3.657a5.408,5.408,0,0,0-2.076-4.023,7.567,7.567,0,0,0-4.8-1.466,8.9,8.9,0,0,0-3.629.7,5.561,5.561,0,0,0-2.439,2.005,5.363,5.363,0,0,0-.873,3.049,4.826,4.826,0,0,0,.873,3.02,5.319,5.319,0,0,0,2.105,1.669,23.047,23.047,0,0,0,3.209,1.059,22.468,22.468,0,0,1,2.453.755,4.02,4.02,0,0,1,1.48.988,2.34,2.34,0,0,1,.595,1.654,2.686,2.686,0,0,1-.958,2.135,3.962,3.962,0,0,1-2.672.829,3.651,3.651,0,0,1-2.569-.844,3.188,3.188,0,0,1-1.032-2.15H964.1a5.121,5.121,0,0,0,.929,3.049,6,6,0,0,0,2.554,2.023,9.029,9.029,0,0,0,3.66.711,7.94,7.94,0,0,0,3.731-.829,5.994,5.994,0,0,0,2.412-2.191,5.513,5.513,0,0,0,.826-2.9A4.892,4.892,0,0,0,977.323,215.739Z" transform="translate(-871.321 -204.075)" fill="url(#linear-gradient-6)"/>
        <path id="Path_7" data-name="Path 7" d="M1008.745,204.555h-3.833l-7.231,20.209h3.456l.5-1.428.313-.892,1.575-4.5h-.009l1.017-2.878.25-.714,2.041-5.786,2.026,5.786.215.619,1.041,2.974h0l1.814,5.208.1.3.466,1.321h3.486Z" transform="translate(-884.927 -204.269)" fill="url(#linear-gradient-7)"/>
        <path id="Path_8" data-name="Path 8" d="M1038.192,204.527v20.18h3.309v-20.18Z" transform="translate(-901.338 -204.258)" fill="url(#linear-gradient-8)"/>
      </g>
    </g>
    <g id="Group_8" data-name="Group 8" transform="translate(807.191 128.642)">
      <g id="Group_7" data-name="Group 7" transform="translate(0)">
        <path id="Path_15732" data-name="Path 15732" d="M823.992,225.023h-3.9V216.2h-8.9v8.826h-3.907V204.248h3.907V212.9h8.9v-8.652h3.9Zm-3.308-.595H823.4V204.843h-2.713V213.5H810.593v-8.652h-2.717v19.585h2.717V215.6h10.091Z" transform="translate(-807.281 -203.979)" fill="#707070"/>
        <path id="Path_15733" data-name="Path 15733" d="M855.331,225.048a11.177,11.177,0,0,1-5.34-1.362,10.105,10.105,0,0,1-3.864-3.8,11.176,11.176,0,0,1,0-10.932,10.134,10.134,0,0,1,3.863-3.789,11.149,11.149,0,0,1,10.684,0,10.056,10.056,0,0,1,3.847,3.787l0,0a11.29,11.29,0,0,1,0,10.926,10.015,10.015,0,0,1-3.847,3.8A11.179,11.179,0,0,1,855.331,225.048Zm0-20.655a10.581,10.581,0,0,0-5.058,1.291,9.539,9.539,0,0,0-3.632,3.562,10.582,10.582,0,0,0,0,10.346,9.5,9.5,0,0,0,3.632,3.573,10.555,10.555,0,0,0,10.113,0A9.42,9.42,0,0,0,864,219.589a10.7,10.7,0,0,0,0-10.347,9.452,9.452,0,0,0-3.615-3.559A10.575,10.575,0,0,0,855.332,204.393Zm-.018,17.78a7.72,7.72,0,0,1-3.712-.954,6.619,6.619,0,0,1-2.576-2.74,8.727,8.727,0,0,1-.916-4.077,8.616,8.616,0,0,1,.916-4.046,6.528,6.528,0,0,1,2.571-2.708,7.82,7.82,0,0,1,7.431,0,6.535,6.535,0,0,1,2.578,2.711,8.627,8.627,0,0,1,.92,4.06,8.725,8.725,0,0,1-.918,4.064h0a6.617,6.617,0,0,1-2.569,2.736A7.748,7.748,0,0,1,855.315,222.173Zm0-14.872a7.243,7.243,0,0,0-3.433.867,5.937,5.937,0,0,0-2.33,2.456,8.043,8.043,0,0,0-.851,3.778,8.152,8.152,0,0,0,.853,3.81A6.012,6.012,0,0,0,851.9,220.7a7.1,7.1,0,0,0,6.849,0,6.012,6.012,0,0,0,2.331-2.485h0a8.839,8.839,0,0,0,0-7.588,5.935,5.935,0,0,0-2.337-2.46A7.212,7.212,0,0,0,855.319,207.3Z" transform="translate(-822.439 -203.797)" fill="#707070"/>
        <path id="Path_15734" data-name="Path 15734" d="M906.129,225.023h-5.123l-7.378-8.529v8.529h-3.9V204.248h3.9v8.693l7.406-8.693h4.942l-9.026,10.4Zm-4.851-.595h3.53l-8.65-9.778,8.514-9.807h-3.364l-8.276,9.714v-9.714h-2.713v19.585h2.713V214.9Z" transform="translate(-840.679 -203.979)" fill="#707070"/>
        <path id="Path_15735" data-name="Path 15735" d="M933.6,225.225a10.059,10.059,0,0,1-4.09-.867,6.771,6.771,0,0,1-2.966-2.673,8.191,8.191,0,0,1-1.086-4.344V204.248h3.9v13.161a4.3,4.3,0,0,0,1.114,3.236,5.15,5.15,0,0,0,6.346-.02,4.317,4.317,0,0,0,1.092-3.216V204.248h3.9v13.1a7.991,7.991,0,0,1-1.112,4.333,6.948,6.948,0,0,1-3.007,2.672A10.078,10.078,0,0,1,933.6,225.225Zm-7.547-20.382V217.35a7.606,7.606,0,0,0,1,4.033,6.165,6.165,0,0,0,2.7,2.433,9.484,9.484,0,0,0,7.694,0,6.348,6.348,0,0,0,2.743-2.438,7.4,7.4,0,0,0,1.026-4.016V204.843H938.5v12.566a4.874,4.874,0,0,1-1.3,3.665,5.754,5.754,0,0,1-7.126.02,4.863,4.863,0,0,1-1.319-3.684V204.843Z" transform="translate(-855.151 -203.979)" fill="#707070"/>
        <path id="Path_15736" data-name="Path 15736" d="M970.863,225.048c-.066,0-.131,0-.2,0a9.363,9.363,0,0,1-3.769-.734,6.3,6.3,0,0,1-2.679-2.123,5.4,5.4,0,0,1-.986-3.23l.007-.292h4.111l.018.278a2.88,2.88,0,0,0,.935,1.949,3.328,3.328,0,0,0,2.35.766,3.717,3.717,0,0,0,2.508-.766A2.373,2.373,0,0,0,974,219a2.051,2.051,0,0,0-.519-1.465,3.74,3.74,0,0,0-1.365-.908,22.32,22.32,0,0,0-2.418-.744,23.432,23.432,0,0,1-3.252-1.073,5.636,5.636,0,0,1-2.23-1.765,5.155,5.155,0,0,1-.932-3.214,5.615,5.615,0,0,1,.92-3.2,5.842,5.842,0,0,1,2.573-2.117,9.048,9.048,0,0,1,3.75-.72,7.867,7.867,0,0,1,4.975,1.524,5.7,5.7,0,0,1,2.2,4.249l.014.311h-4.24l-.024-.271a2.355,2.355,0,0,0-.93-1.675,3.556,3.556,0,0,0-2.33-.725,3.332,3.332,0,0,0-2.159.665,2.233,2.233,0,0,0-.782,1.836,1.864,1.864,0,0,0,.487,1.34,3.716,3.716,0,0,0,1.324.868,22.124,22.124,0,0,0,2.347.745,25.7,25.7,0,0,1,3.308,1.116,5.756,5.756,0,0,1,2.273,1.794l.006.008a5.211,5.211,0,0,1,.938,3.254,5.781,5.781,0,0,1-.87,3.045,6.292,6.292,0,0,1-2.532,2.3A8.284,8.284,0,0,1,970.863,225.048Zm-.2-.6a7.733,7.733,0,0,0,3.6-.8,5.7,5.7,0,0,0,2.293-2.082,5.209,5.209,0,0,0,.78-2.746,4.627,4.627,0,0,0-.828-2.893,5.152,5.152,0,0,0-2.029-1.6,25,25,0,0,0-3.224-1.087,22.777,22.777,0,0,1-2.409-.764,4.32,4.32,0,0,1-1.544-1.014,2.44,2.44,0,0,1-.651-1.744,2.815,2.815,0,0,1,1.006-2.308,3.874,3.874,0,0,1,2.528-.794,4.125,4.125,0,0,1,2.691.845,2.955,2.955,0,0,1,1.127,1.826h3.076a5.105,5.105,0,0,0-1.938-3.49,7.3,7.3,0,0,0-4.609-1.4,8.559,8.559,0,0,0-3.526.673,5.25,5.25,0,0,0-2.309,1.9,5.043,5.043,0,0,0-.822,2.876,4.574,4.574,0,0,0,.818,2.855,5.031,5.031,0,0,0,1.982,1.568,22.685,22.685,0,0,0,3.162,1.043,22.875,22.875,0,0,1,2.484.765,4.323,4.323,0,0,1,1.592,1.061,2.629,2.629,0,0,1,.677,1.871,2.955,2.955,0,0,1-1.064,2.351,4.242,4.242,0,0,1-2.881.9,3.884,3.884,0,0,1-2.741-.912,3.48,3.48,0,0,1-1.109-2.081H963.83a4.8,4.8,0,0,0,.873,2.581,5.708,5.708,0,0,0,2.425,1.919A8.594,8.594,0,0,0,970.668,224.451Z" transform="translate(-870.457 -203.795)" fill="#707070"/>
        <path id="Path_15737" data-name="Path 15737" d="M1015.749,225.085h-4.119l-5.456-15.606-5.48,15.6h-4.089l7.444-20.8h4.253Zm-3.7-.595h2.853l-7.021-19.619h-3.414l-7.019,19.614h2.823l2.183-6.229h0l.131-.4,3.59-10.176Z" transform="translate(-883.977 -203.99)" fill="#707070"/>
        <path id="Path_15738" data-name="Path 15738" d="M1041.232,225.023h-3.9V204.248h3.9Zm-3.309-.595h2.715V204.843h-2.715Z" transform="translate(-900.474 -203.979)" fill="#707070"/>
      </g>
    </g>
    <g id="Group_11" data-name="Group 11" transform="translate(807.136 153.319)">
      <g id="Group_10" data-name="Group 10" transform="translate(0)">
        <path id="Path_16" data-name="Path 16" d="M815.031,248.207a3.031,3.031,0,0,0-1.173-1.319,3.362,3.362,0,0,0-1.785-.468,3.626,3.626,0,0,0-1.836.468,3.3,3.3,0,0,0-1.284,1.34,4.569,4.569,0,0,0,0,4.027,3.313,3.313,0,0,0,1.284,1.333,3.623,3.623,0,0,0,1.836.468,3.322,3.322,0,0,0,2.345-.851,3.518,3.518,0,0,0,1.075-2.3h-3.88v-1.035h5.235v.977a4.837,4.837,0,0,1-.754,2.2,4.666,4.666,0,0,1-1.689,1.578,4.74,4.74,0,0,1-2.331.579,4.913,4.913,0,0,1-2.471-.635,4.67,4.67,0,0,1-1.766-1.766,5.364,5.364,0,0,1,0-5.116,4.642,4.642,0,0,1,1.766-1.773,4.9,4.9,0,0,1,2.471-.635,4.959,4.959,0,0,1,2.743.768,4.392,4.392,0,0,1,1.738,2.164Z" transform="translate(-807.189 -245.277)" fill="url(#linear-gradient-9)"/>
        <path id="Path_17" data-name="Path 17" d="M829.855,246.486v3.253H833.4v1.047h-3.546v3.35h3.964v1.047h-5.235v-9.744h5.235v1.047Z" transform="translate(-815.856 -245.342)" fill="url(#linear-gradient-10)"/>
        <path id="Path_18" data-name="Path 18" d="M850.619,255.183h-1.27l-5.109-7.747v7.747h-1.27v-9.744h1.27l5.109,7.734v-7.734h1.27Z" transform="translate(-821.684 -245.342)" fill="url(#linear-gradient-11)"/>
        <path id="Path_19" data-name="Path 19" d="M863.081,246.486v3.253h3.546v1.047h-3.546v3.35h3.964v1.047H861.81v-9.744h5.235v1.047Z" transform="translate(-829.316 -245.342)" fill="url(#linear-gradient-12)"/>
        <path id="Path_20" data-name="Path 20" d="M881.318,255.191,879,251.213h-1.535v3.979H876.2v-9.729h3.14a4.168,4.168,0,0,1,1.864.377,2.623,2.623,0,0,1,1.137,1.019,2.821,2.821,0,0,1-1.94,4.258l2.443,4.076Zm-3.853-5h1.87a2.127,2.127,0,0,0,1.547-.509,1.828,1.828,0,0,0,.516-1.361,1.743,1.743,0,0,0-.509-1.34,2.217,2.217,0,0,0-1.557-.476h-1.87Z" transform="translate(-835.144 -245.351)" fill="url(#linear-gradient-13)"/>
        <path id="Path_21" data-name="Path 21" d="M898.14,253.067H893.9l-.782,2.164h-1.34l3.518-9.674h1.466l3.5,9.674h-1.34Zm-.363-1.033-1.759-4.914-1.759,4.914Z" transform="translate(-841.455 -245.39)" fill="url(#linear-gradient-14)"/>
        <path id="Path_22" data-name="Path 22" d="M912.24,254.159h3.406v1.033H910.97v-9.729h1.27Z" transform="translate(-849.231 -245.352)" fill="url(#linear-gradient-15)"/>
        <path id="Path_23" data-name="Path 23" d="M937.643,245.463V246.5h-2.651v8.7h-1.271v-8.7h-2.666v-1.033Z" transform="translate(-857.368 -245.352)" fill="url(#linear-gradient-16)"/>
        <path id="Path_24" data-name="Path 24" d="M952.227,255.191l-2.317-3.979h-1.536v3.979H947.1v-9.729h3.14a4.167,4.167,0,0,1,1.864.377,2.623,2.623,0,0,1,1.137,1.019,2.821,2.821,0,0,1-1.941,4.258l2.443,4.076Zm-3.853-5h1.871a2.126,2.126,0,0,0,1.547-.509,1.827,1.827,0,0,0,.516-1.361,1.743,1.743,0,0,0-.509-1.34,2.217,2.217,0,0,0-1.557-.476h-1.871Z" transform="translate(-863.869 -245.351)" fill="url(#linear-gradient-17)"/>
        <path id="Path_25" data-name="Path 25" d="M969.05,253.067h-4.243l-.782,2.164h-1.34l3.518-9.674h1.466l3.5,9.674h-1.34Zm-.363-1.033-1.759-4.914-1.759,4.914Z" transform="translate(-870.181 -245.39)" fill="url(#linear-gradient-18)"/>
        <path id="Path_26" data-name="Path 26" d="M987.667,246.052a4.17,4.17,0,0,1,1.785,1.7,5.723,5.723,0,0,1,0,5.186,4.1,4.1,0,0,1-1.785,1.675,6.134,6.134,0,0,1-2.757.579h-3.029v-9.727h3.029A6,6,0,0,1,987.667,246.052Zm.119,7.091a3.8,3.8,0,0,0,.991-2.8,3.882,3.882,0,0,0-1-2.834,3.835,3.835,0,0,0-2.869-1.019h-1.759v7.649h1.759a3.88,3.88,0,0,0,2.876-1Z" transform="translate(-877.957 -245.351)" fill="url(#linear-gradient-19)"/>
        <path id="Path_27" data-name="Path 27" d="M1002.085,245.463v9.729h-1.27v-9.729Z" transform="translate(-885.628 -245.352)" fill="url(#linear-gradient-20)"/>
        <path id="Path_28" data-name="Path 28" d="M1016.586,255.183h-1.273l-5.109-7.747v7.747h-1.27v-9.744h1.27l5.109,7.734v-7.734h1.273Z" transform="translate(-888.917 -245.342)" fill="url(#linear-gradient-21)"/>
        <path id="Path_29" data-name="Path 29" d="M1034.825,248.207a3.031,3.031,0,0,0-1.173-1.319,3.362,3.362,0,0,0-1.785-.468,3.625,3.625,0,0,0-1.836.468,3.3,3.3,0,0,0-1.284,1.34,4.565,4.565,0,0,0,0,4.027,3.314,3.314,0,0,0,1.284,1.333,3.624,3.624,0,0,0,1.836.468,3.32,3.32,0,0,0,2.345-.851,3.518,3.518,0,0,0,1.075-2.3h-3.88v-1.035h5.235v.977a4.838,4.838,0,0,1-.754,2.2,4.667,4.667,0,0,1-1.689,1.578,4.738,4.738,0,0,1-2.331.579,4.91,4.91,0,0,1-2.471-.635,4.671,4.671,0,0,1-1.766-1.766,5.365,5.365,0,0,1,0-5.116,4.643,4.643,0,0,1,1.766-1.773,5.205,5.205,0,0,1,5.214.133,4.394,4.394,0,0,1,1.738,2.164Z" transform="translate(-896.228 -245.277)" fill="url(#linear-gradient-22)"/>
      </g>
    </g>
    <g id="Group_14" data-name="Group 14" transform="translate(807.059 153.208)">
      <g id="Group_13" data-name="Group 13">
        <path id="Path_15739" data-name="Path 15739" d="M812.084,255.161h-.118a4.984,4.984,0,0,1-2.452-.645,4.744,4.744,0,0,1-1.794-1.794,5.422,5.422,0,0,1,0-5.188,4.732,4.732,0,0,1,1.8-1.8,5.3,5.3,0,0,1,5.289.134,4.5,4.5,0,0,1,1.769,2.2l.037.1-1.679,0-.02-.043a2.947,2.947,0,0,0-1.145-1.287,3.226,3.226,0,0,0-1.744-.457h-.053a3.557,3.557,0,0,0-1.748.458,3.229,3.229,0,0,0-1.255,1.31,4.521,4.521,0,0,0,0,3.96,3.233,3.233,0,0,0,1.255,1.3,3.556,3.556,0,0,0,1.745.458h.052a3.25,3.25,0,0,0,2.3-.832,3.431,3.431,0,0,0,1.045-2.174h-3.875v-1.181h5.384v1.052a4.931,4.931,0,0,1-.766,2.242,4.748,4.748,0,0,1-1.716,1.6A4.816,4.816,0,0,1,812.084,255.161Zm-.063-.149h.061a4.672,4.672,0,0,0,2.236-.57,4.6,4.6,0,0,0,1.662-1.552,4.769,4.769,0,0,0,.742-2.167v-.9h-5.086v.884h3.885l-.005.079a3.585,3.585,0,0,1-1.1,2.353,3.385,3.385,0,0,1-2.4.872,3.782,3.782,0,0,1-1.87-.477,3.382,3.382,0,0,1-1.313-1.363,4.675,4.675,0,0,1,0-4.095,3.381,3.381,0,0,1,1.314-1.372,3.807,3.807,0,0,1,1.874-.478h.074a3.43,3.43,0,0,1,1.747.479,3.086,3.086,0,0,1,1.182,1.308l1.369,0a4.351,4.351,0,0,0-1.67-2.027,5.147,5.147,0,0,0-5.138-.13,4.571,4.571,0,0,0-1.737,1.744,5.274,5.274,0,0,0,0,5.045,4.586,4.586,0,0,0,1.738,1.736,4.832,4.832,0,0,0,2.38.626Z" transform="translate(-807.059 -245.089)" fill="#707070"/>
        <path id="Path_15740" data-name="Path 15740" d="M833.843,255.136h-5.384v-9.892h5.384v1.2h-3.964v3.1h3.546v1.2h-3.546v3.2h3.964Zm-5.235-.149h5.086v-.9H829.73v-3.5h3.546v-.9H829.73v-3.4h3.964v-.9h-5.086Z" transform="translate(-815.728 -245.152)" fill="#707070"/>
        <path id="Path_15741" data-name="Path 15741" d="M850.643,255.136h-1.385l-4.995-7.574v7.574h-1.418v-9.892h1.384l4.994,7.56v-7.56h1.419Zm-1.3-.149h1.156v-9.6h-1.122V253.3l-5.223-7.907h-1.155v9.6h1.121v-7.92Z" transform="translate(-821.556 -245.152)" fill="#707070"/>
        <path id="Path_15742" data-name="Path 15742" d="M867.068,255.136h-5.383v-9.892h5.383v1.2H863.1v3.1h3.546v1.2H863.1v3.2h3.964Zm-5.235-.149h5.086v-.9h-3.964v-3.5H866.5v-.9h-3.546v-3.4h3.964v-.9h-5.086Z" transform="translate(-829.188 -245.152)" fill="#707070"/>
        <path id="Path_15743" data-name="Path 15743" d="M882.919,255.145h-1.7l-2.316-3.979h-1.418v3.979h-1.419v-9.878h3.215a4.324,4.324,0,0,1,1.894.384,2.683,2.683,0,0,1,1.17,1.048,2.9,2.9,0,0,1-1.884,4.35Zm-1.61-.149h1.347l-2.431-4.057.107-.018a2.745,2.745,0,0,0,1.889-4.145,2.541,2.541,0,0,0-1.105-.99,4.152,4.152,0,0,0-1.83-.371h-3.069V255h1.122v-3.979h1.653Zm-1.868-4.842c-.055,0-.108,0-.163-.006H877.34l0-3.835h1.945a2.268,2.268,0,0,1,1.6.493,1.817,1.817,0,0,1,.537,1.4,1.9,1.9,0,0,1-.537,1.409A2.219,2.219,0,0,1,879.441,250.153ZM877.488,250h1.8a2.071,2.071,0,0,0,1.5-.491,1.752,1.752,0,0,0,.491-1.3,1.673,1.673,0,0,0-.487-1.291,2.146,2.146,0,0,0-1.5-.454h-1.8Z" transform="translate(-835.015 -245.16)" fill="#707070"/>
        <path id="Path_15744" data-name="Path 15744" d="M900.3,255.186h-1.5l-.017-.049-.764-2.114h-4.139l-.782,2.164h-1.5l.036-.1,3.536-9.724h1.57l.018.049Zm-1.395-.149h1.182l-3.45-9.525h-1.361l-3.464,9.525h1.181l.782-2.164h4.348l.018.049Zm-1.091-3.048H894.08l1.864-5.208Zm-3.518-.149H897.6l-1.654-4.618Z" transform="translate(-841.305 -245.2)" fill="#707070"/>
        <path id="Path_15745" data-name="Path 15745" d="M915.67,255.145h-4.825v-9.878h1.418v8.7h3.406ZM910.994,255h4.527v-.885h-3.406v-8.7h-1.121Z" transform="translate(-849.103 -245.161)" fill="#707070"/>
        <path id="Path_15746" data-name="Path 15746" d="M935.016,255.148H933.6v-8.7H930.93v-1.184h6.737v1.184h-2.652ZM933.745,255h1.122v-8.7h2.651v-.886h-6.44v.886h2.666Z" transform="translate(-857.24 -245.161)" fill="#707070"/>
        <path id="Path_15747" data-name="Path 15747" d="M953.829,255.145h-1.695l-2.318-3.979H948.4v3.979h-1.418v-9.878h3.215a4.321,4.321,0,0,1,1.894.384,2.684,2.684,0,0,1,1.17,1.048,2.9,2.9,0,0,1-1.885,4.35ZM952.219,255h1.347l-2.431-4.057.108-.018a2.745,2.745,0,0,0,1.889-4.145,2.542,2.542,0,0,0-1.105-.99,4.15,4.15,0,0,0-1.83-.371h-3.068V255h1.121v-3.979H949.9Zm-1.868-4.842c-.054,0-.108,0-.163-.006h-1.94l0-3.835h1.946a2.277,2.277,0,0,1,1.6.493,1.82,1.82,0,0,1,.537,1.4,1.905,1.905,0,0,1-.538,1.409A2.219,2.219,0,0,1,950.352,250.153ZM948.4,250h1.8a2.072,2.072,0,0,0,1.5-.491,1.757,1.757,0,0,0,.491-1.3,1.675,1.675,0,0,0-.487-1.291,2.148,2.148,0,0,0-1.5-.454h-1.8Z" transform="translate(-863.742 -245.16)" fill="#707070"/>
        <path id="Path_15748" data-name="Path 15748" d="M971.207,255.186h-1.5l-.017-.049-.764-2.114h-4.139L964,255.186h-1.5l.036-.1,3.536-9.724h1.57l.018.049Zm-1.395-.149h1.182l-3.45-9.525h-1.361l-3.465,9.525H963.9l.782-2.164h4.348l.017.049Zm-1.092-3.048h-3.729l1.865-5.208Zm-3.518-.149h3.307l-1.654-4.618Z" transform="translate(-870.031 -245.2)" fill="#707070"/>
        <path id="Path_15749" data-name="Path 15749" d="M985.008,255.146l-.151,0h-3.1v-9.878h3.1a6.105,6.105,0,0,1,2.789.6h0a4.228,4.228,0,0,1,1.817,1.726,5.814,5.814,0,0,1,0,5.256,4.153,4.153,0,0,1-1.819,1.708A6.235,6.235,0,0,1,985.008,255.146ZM981.9,255h2.955a6.1,6.1,0,0,0,2.725-.572,4.005,4.005,0,0,0,1.751-1.644,5.666,5.666,0,0,0,0-5.116A4.078,4.078,0,0,0,987.583,246a5.967,5.967,0,0,0-2.722-.585H981.9Zm3.216-.887c-.089,0-.178,0-.266-.009h-1.828v-7.8h1.833a3.915,3.915,0,0,1,2.919,1.039,3.979,3.979,0,0,1,1.022,2.893,3.889,3.889,0,0,1-1.011,2.842l0,0A3.971,3.971,0,0,1,985.121,254.108Zm-1.946-.158h1.685a3.817,3.817,0,0,0,2.823-.979,3.75,3.75,0,0,0,.969-2.739,3.834,3.834,0,0,0-.979-2.789,3.776,3.776,0,0,0-2.808-.995h-1.69Z" transform="translate(-877.83 -245.16)" fill="#707070"/>
        <path id="Path_15750" data-name="Path 15750" d="M1002.108,255.145h-1.419v-9.878h1.419Zm-1.27-.149h1.121v-9.581h-1.121Z" transform="translate(-885.5 -245.161)" fill="#707070"/>
        <path id="Path_15751" data-name="Path 15751" d="M1016.61,255.136h-1.388l-4.995-7.574v7.574h-1.418v-9.892h1.384l4.994,7.56v-7.56h1.422Zm-1.308-.149h1.159v-9.6h-1.125V253.3l-5.223-7.907h-1.155v9.6h1.121v-7.92Z" transform="translate(-888.789 -245.152)" fill="#707070"/>
        <path id="Path_15752" data-name="Path 15752" d="M1031.876,255.161h-.118a4.981,4.981,0,0,1-2.45-.645,4.744,4.744,0,0,1-1.794-1.794,5.422,5.422,0,0,1,0-5.188,4.732,4.732,0,0,1,1.8-1.8,5.3,5.3,0,0,1,5.289.134,4.5,4.5,0,0,1,1.769,2.2l.037.1-1.679,0-.02-.043a2.946,2.946,0,0,0-1.144-1.287,3.284,3.284,0,0,0-1.673-.457h-.124a3.559,3.559,0,0,0-1.748.458,3.228,3.228,0,0,0-1.254,1.31,4.521,4.521,0,0,0,0,3.96,3.229,3.229,0,0,0,1.255,1.3,3.554,3.554,0,0,0,1.745.458h.052a3.256,3.256,0,0,0,2.3-.832,3.431,3.431,0,0,0,1.045-2.174h-3.875v-1.181h5.384v1.052a4.94,4.94,0,0,1-.766,2.242,4.748,4.748,0,0,1-1.716,1.6A4.823,4.823,0,0,1,1031.876,255.161Zm-.061-.149a4.615,4.615,0,0,0,3.958-2.122,4.774,4.774,0,0,0,.742-2.167v-.9h-5.086v.884h3.885l-.005.079a3.585,3.585,0,0,1-1.1,2.353,3.386,3.386,0,0,1-2.4.872h-.054a3.7,3.7,0,0,1-1.815-.478,3.374,3.374,0,0,1-1.314-1.363,4.677,4.677,0,0,1,0-4.095,3.382,3.382,0,0,1,1.314-1.372,3.8,3.8,0,0,1,1.874-.478h.074a3.43,3.43,0,0,1,1.747.479,3.085,3.085,0,0,1,1.182,1.308l1.369,0a4.352,4.352,0,0,0-1.67-2.027,5.147,5.147,0,0,0-5.137-.13,4.57,4.57,0,0,0-1.737,1.744,5.274,5.274,0,0,0,0,5.045,4.586,4.586,0,0,0,1.738,1.736,4.83,4.83,0,0,0,2.378.626Z" transform="translate(-896.098 -245.089)" fill="#707070"/>
      </g>
    </g>
    <g id="Group_16" data-name="Group 16" transform="translate(848.308 18.28)">
      <path id="Path_15753" data-name="Path 15753" d="M905.435,119.287l-3.659-2.113V78.248l7.319,0v38.923Zm-2.469-2.8,2.469,1.425,2.47-1.426V79.441l-4.939,0Zm11.929-2.666V72.443H895.961v41.377l-19.564-11.3V35.051l19.572-11.306V65.122h7.364v0H914.9V23.746l19.572,11.306v67.465ZM894.771,71.254h21.313V111.76l17.192-9.93V35.738l-17.192-9.931V66.314H901.406v0h-6.628V25.807l-17.193,9.931V101.83l17.185,9.93Zm26.263,31.95V34.364l7.317,4.226V98.976Zm1.19-66.778v64.717l4.937-2.852V39.277ZM889.834,103.2l-7.317-4.228V38.59l7.317-4.226Zm-6.127-4.914,4.937,2.853V36.425l-4.937,2.851Zm18.066-38.972V20.394l3.66-2.114,3.659,2.114V59.315Zm1.19-38.237V58.127H907.9V21.08l-2.469-1.426Z" transform="translate(-876.397 -18.28)" fill="#707070"/>
    </g>
  </g>
</svg>
