<svg xmlns="http://www.w3.org/2000/svg" width="100" height="100" viewBox="0 0 100 100">
  <g id="Group_11667" data-name="Group 11667" transform="translate(-1516 -174)">
    <g id="Group_11622" data-name="Group 11622" transform="translate(46)">
      <g id="Ellipse_549" data-name="Ellipse 549" transform="translate(1470 174)" fill="#fff" stroke="#d4be6a" stroke-width="2">
        <circle cx="50" cy="50" r="50" stroke="none"/>
        <circle cx="50" cy="50" r="49" fill="none"/>
      </g>
      <g id="Group_11620" data-name="Group 11620" transform="translate(3926.482 867.663)">
        <path id="Path_15317" data-name="Path 15317" d="M-2377.836-670.15a5.257,5.257,0,0,0-5.242-5.242h-21.23a5.257,5.257,0,0,0-5.242,5.242v7.6h2.883v-6.29a4.083,4.083,0,0,1,4.063-4.063h17.822c2.228,0,1.442,2.359,1.442,4.587l.264,5.375,1.18.059v14.1h3.011V-662.73l1.05.052Z" transform="translate(-11.608 -2.904)" fill="#c5c5c5"/>
        <path id="Path_15307" data-name="Path 15307" d="M-2422.91-617.664a2.628,2.628,0,0,0-2.621,2.621v33.156h48.489a2.628,2.628,0,0,0,2.621-2.621v-33.156Zm24.375,11.27a6.56,6.56,0,0,1,3.145,5.5,6.44,6.44,0,0,1-3.014,5.5v6.029a3.524,3.524,0,0,1-3.509,3.539h-.161Z" transform="translate(-4.408 -28.912)" fill="#d2bb67"/>
        <path id="Path_15308" data-name="Path 15308" d="M-2379.829-591.521a6.439,6.439,0,0,1-3.014,5.5v6.029a3.524,3.524,0,0,1-3.509,3.539h-.161a3.3,3.3,0,0,1-1.179-2.621V-585.1a6.438,6.438,0,0,1-3.016-5.5,6.572,6.572,0,0,1,6.553-6.553,4.481,4.481,0,0,1,1.31.131A6.28,6.28,0,0,1-2379.829-591.521Z" transform="translate(-20.097 -38.15)" fill="#8f7929"/>
        <path id="Path_15309" data-name="Path 15309" d="M-2382.319-596.914a6.738,6.738,0,0,1,1.311,3.931,6.439,6.439,0,0,1-3.014,5.5v6.029a3.523,3.523,0,0,1-3.509,3.538h-.553a3.572,3.572,0,0,0,3.277,2.228,3.524,3.524,0,0,0,3.537-3.51v-6.057a6.441,6.441,0,0,0,3.015-5.5A6.392,6.392,0,0,0-2382.319-596.914Z" transform="translate(-21.279 -38.261)" fill="#655721"/>
        <path id="Path_15310" data-name="Path 15310" d="M-2377.281-617.665h-1.7v30.535a2.349,2.349,0,0,1-2.339,2.359h-44.447v.655a2.349,2.349,0,0,0,2.339,2.359h46.15a2.349,2.349,0,0,0,2.359-2.339v-31.21a2.271,2.271,0,0,0-2.179-2.359C-2377.161-617.668-2377.221-617.668-2377.281-617.665Z" transform="translate(-4.3 -28.911)" fill="#8f7a2d"/>
        <path id="Path_15311" data-name="Path 15311" d="M-2396.52-584.768h-5.769a1.31,1.31,0,0,1-1.309-1.312,1.311,1.311,0,0,1,1.309-1.309h5.769a1.311,1.311,0,0,1,1.309,1.312A1.31,1.31,0,0,1-2396.52-584.768Zm14.94,0h-7.6a1.31,1.31,0,0,1-1.309-1.312,1.311,1.311,0,0,1,1.309-1.309h7.6a1.238,1.238,0,0,0,1.311-1.16,1.4,1.4,0,0,0,0-.15v-34.336a1.239,1.239,0,0,0-1.161-1.31,1.356,1.356,0,0,0-.149,0h-49.8a1.238,1.238,0,0,0-1.311,1.161,1.174,1.174,0,0,0,0,.149,1.238,1.238,0,0,1-1.161,1.31,1.13,1.13,0,0,1-.149,0,1.237,1.237,0,0,1-1.311-1.16,1.282,1.282,0,0,1,0-.15,3.862,3.862,0,0,1,3.79-3.931h49.941a3.862,3.862,0,0,1,3.931,3.791c0,.047,0,.094,0,.141V-588.7a3.943,3.943,0,0,1-3.931,3.931Zm-27.783,0h-22.017a3.861,3.861,0,0,1-3.932-3.79c0-.047,0-.094,0-.141v-25.03a1.238,1.238,0,0,1,1.158-1.313,1.273,1.273,0,0,1,.153,0,1.238,1.238,0,0,1,1.31,1.161,1.219,1.219,0,0,1,0,.152v25.03a1.238,1.238,0,0,0,1.161,1.31,1.141,1.141,0,0,0,.15,0h22.017a1.311,1.311,0,0,1,1.309,1.312,1.31,1.31,0,0,1-1.309,1.309Z" transform="translate(0 -24.721)" fill="#222939"/>
        <path id="Path_15318" data-name="Path 15318" d="M-2407.057-680.672a.718.718,0,0,1,0,.148,1.241,1.241,0,0,1-1.159,1.313h-.154a5.294,5.294,0,0,0-1.654.269,5.309,5.309,0,0,0-2.214,1.44,5.275,5.275,0,0,0-1.374,3.533v7.473h5.374v1.456a1.241,1.241,0,0,1-1.231,1.159H-2415a1.241,1.241,0,0,1-1.231-1.159v-8.929a7.819,7.819,0,0,1,1.791-4.973,7.859,7.859,0,0,1,2.209-1.868,7.867,7.867,0,0,1,3.863-1.022A1.23,1.23,0,0,1-2407.057-680.672Z" transform="translate(-8.597 -0.001)" fill="#222939"/>
        <rect id="Rectangle_685" data-name="Rectangle 685" width="2.621" height="2.615" transform="translate(-2396.126 -666.497)" fill="#222939"/>
        <path id="Path_15319" data-name="Path 15319" d="M-2365.523-673.97v8.78a1.42,1.42,0,0,1-1.44,1.308h-1.181V-673.97a5.211,5.211,0,0,0-1.308-3.456,5.23,5.23,0,0,0-3.934-1.786h-11.006a1.244,1.244,0,0,1-1.313-1.165v-.148a1.236,1.236,0,0,1,1.165-1.308.671.671,0,0,1,.148,0h11.006A7.879,7.879,0,0,1-2365.523-673.97Z" transform="translate(-22.351 0)" fill="#222939"/>
        <path id="Path_15320" data-name="Path 15320" d="M-2384.568-672.529h-17.819a4.037,4.037,0,0,0-1.8.434,4.066,4.066,0,0,0-2.264,3.632v7.747a1.239,1.239,0,0,0,.676,1.027h.714a1.241,1.241,0,0,0,1.231-1.159v-7.615a1.462,1.462,0,0,1,1.445-1.445h17.819a1.458,1.458,0,0,1,1.445,1.445v8.912h1.385a1.175,1.175,0,0,0,.588-.137,1.2,1.2,0,0,0,.648-1.044v-7.731A4.085,4.085,0,0,0-2384.568-672.529Z" transform="translate(-13.003 -4.193)" fill="#222939"/>
        <path id="Path_15321" data-name="Path 15321" d="M-2389.179-576.987a4.924,4.924,0,0,1-4.849-4.849v-5.373c-.262-.262-.524-.393-.786-.656a1.3,1.3,0,0,1,0-1.836,1.3,1.3,0,0,1,1.836,0h0a5.674,5.674,0,0,0,.917.786,1.339,1.339,0,0,1,.656,1.048v6.029a2.228,2.228,0,0,0,2.193,2.263,2.228,2.228,0,0,0,2.263-2.193v-6.1a1.166,1.166,0,0,1,.652-1.048,5.111,5.111,0,0,0,2.49-4.456,5.242,5.242,0,0,0-5.243-5.242,5.242,5.242,0,0,0-5.241,5.242,1.238,1.238,0,0,1-1.161,1.31,1.13,1.13,0,0,1-.149,0,1.237,1.237,0,0,1-1.31-1.16,1.027,1.027,0,0,1,0-.15,7.862,7.862,0,0,1,7.833-7.893,7.862,7.862,0,0,1,7.893,7.832,7.861,7.861,0,0,1-3.014,6.221v5.373A5.132,5.132,0,0,1-2389.179-576.987Z" transform="translate(-17.301 -36.302)" fill="#222939"/>
        <path id="Path_15314" data-name="Path 15314" d="M-2420.645-580.123a1.237,1.237,0,0,1-1.311-1.16,1.182,1.182,0,0,1,0-.15v-7.732a1.238,1.238,0,0,1,1.161-1.31,1.365,1.365,0,0,1,.15,0,1.238,1.238,0,0,1,1.31,1.161,1.272,1.272,0,0,1,0,.149v7.732A1.313,1.313,0,0,1-2420.645-580.123Z" transform="translate(-6.018 -41.161)" fill="#fff"/>
        <circle id="Ellipse_546" data-name="Ellipse 546" cx="1.31" cy="1.31" r="1.31" transform="translate(-2428.104 -618.925)" fill="#fff"/>
        <circle id="Ellipse_547" data-name="Ellipse 547" cx="1.31" cy="1.31" r="1.31" transform="translate(-2435.312 -644.349)" fill="#222939"/>
        <g id="Group_11333" data-name="Group 11333" transform="translate(-2413.82 -681.834)">
          <circle id="Ellipse_548" data-name="Ellipse 548" cx="1.31" cy="1.31" r="1.31" transform="translate(0)" fill="#222939"/>
        </g>
        <path id="Path_15322" data-name="Path 15322" d="M-2363.993-652.5v13.391h2.621v-14.81h-2.621Z" transform="translate(-32.133 -12.578)" fill="#222939"/>
        <path id="Path_15323" data-name="Path 15323" d="M-2353.743-652.5v13.391h2.621v-14.81h-2.621Z" transform="translate(-36.751 -12.578)" fill="#222939"/>
      </g>
    </g>
    <path id="Path_15522" data-name="Path 15522" d="M1579.906,176.955c-6.01,2.226-50.3,80.13-50.3,80.13s8.013,9.794,18.252,12.242c3.561-5.565,49.859-83.024,49.859-83.024S1586.584,178.29,1579.906,176.955Z" fill="#fff" opacity="0.2"/>
  </g>
</svg>
