<svg xmlns="http://www.w3.org/2000/svg" width="13.084" height="13.084" viewBox="0 0 13.084 13.084">
  <path id="_602e6b9e4698950619ee2ac3d2b3c83d" data-name="602e6b9e4698950619ee2ac3d2b3c83d" d="M14.556,3.9,12.58,2.313A1.4,1.4,0,0,0,11.7,2H3.4A1.4,1.4,0,0,0,2,3.4v10.28a1.4,1.4,0,0,0,1.4,1.4h10.28a1.4,1.4,0,0,0,1.4-1.4V5a1.4,1.4,0,0,0-.528-1.1ZM4.8,2.935H8.542V4.57a.234.234,0,0,1-.234.234H5.037A.234.234,0,0,1,4.8,4.57ZM11.813,14.15H5.271v-2.8a.467.467,0,0,1,.467-.467h5.608a.467.467,0,0,1,.467.467Zm2.336-.467a.467.467,0,0,1-.467.467h-.935v-2.8a1.4,1.4,0,0,0-1.4-1.4H5.738a1.4,1.4,0,0,0-1.4,1.4v2.8H3.4a.467.467,0,0,1-.467-.467V3.4A.467.467,0,0,1,3.4,2.935h.467V4.57A1.168,1.168,0,0,0,5.037,5.738H8.308A1.168,1.168,0,0,0,9.477,4.57V2.935H11.7a.467.467,0,0,1,.3.107l1.977,1.589A.467.467,0,0,1,14.15,5Z" transform="translate(-2 -2)" fill="#08f"/>
</svg>
