<svg xmlns="http://www.w3.org/2000/svg" width="24.684" height="24.692" viewBox="0 0 24.684 24.692">
  <path id="c72dc35a03860f0c26494e30de67b9f8" d="M10.733,26.214a2.4,2.4,0,0,1-.964-.2l-1.586-.657A2.559,2.559,0,0,1,6.8,22.026l.5-1.22a.284.284,0,0,0-.367-.367l-1.22.5a2.559,2.559,0,0,1-3.343-1.39l-.648-1.569A2.559,2.559,0,0,1,3.108,14.64l1.22-.5a.3.3,0,0,0,0-.537L3.108,13.1A2.559,2.559,0,0,1,1.726,9.761l.657-1.586A2.559,2.559,0,0,1,5.718,6.8l1.22.5A.284.284,0,0,0,7.3,6.938l-.5-1.22a2.559,2.559,0,0,1,1.39-3.343l1.569-.648A2.559,2.559,0,0,1,13.1,3.108l.5,1.22a.29.29,0,0,0,.264.162h0a.29.29,0,0,0,.273-.162l.495-1.22a2.559,2.559,0,0,1,3.343-1.382l1.586.657a2.559,2.559,0,0,1,1.382,3.335l-.512,1.22a.284.284,0,0,0,.367.367l1.22-.5a2.559,2.559,0,0,1,3.343,1.39l.648,1.569A2.559,2.559,0,0,1,24.636,13.1l-1.22.5a.3.3,0,0,0,0,.537l1.22.495a2.559,2.559,0,0,1,1.382,3.343l-.657,1.586a2.559,2.559,0,0,1-3.335,1.382l-1.22-.5a.284.284,0,0,0-.367.367l.5,1.22a2.559,2.559,0,0,1-1.39,3.343l-1.569.648a2.559,2.559,0,0,1-3.343-1.382l-.5-1.22a.29.29,0,0,0-.264-.171h0a.29.29,0,0,0-.273.162l-.495,1.22A2.559,2.559,0,0,1,10.733,26.214ZM7.048,18.708a2,2,0,0,1,1.842,2.755l-.512,1.211a.853.853,0,0,0,.469,1.117l1.612.657a.853.853,0,0,0,1.117-.469l.495-1.2a1.97,1.97,0,0,1,1.8-1.228h0a1.97,1.97,0,0,1,1.834,1.22l.5,1.211a.853.853,0,0,0,1.117.461l1.578-.648a.9.9,0,0,0,.461-.461.853.853,0,0,0,0-.657l-.5-1.211A2,2,0,0,1,21.42,18.9l1.211.512a.853.853,0,0,0,1.117-.469l.657-1.578a.853.853,0,0,0-.469-1.117l-1.2-.495a2,2,0,0,1,0-3.676l1.211-.5a.853.853,0,0,0,.495-1.117l-.648-1.578a.9.9,0,0,0-.461-.461.853.853,0,0,0-.657,0h0l-1.211.5a2,2,0,0,1-2.559-2.6l.512-1.211a.853.853,0,0,0-.469-1.117l-1.621-.7a.853.853,0,0,0-1.117.469l-.495,1.2A1.97,1.97,0,0,1,13.872,6.2h0a1.97,1.97,0,0,1-1.834-1.22l-.5-1.211A.853.853,0,0,0,10.46,3.3l-1.578.648a.9.9,0,0,0-.461.461.853.853,0,0,0,0,.657l.5,1.211a2,2,0,0,1-2.644,2.6L5.07,8.371a.853.853,0,0,0-1.117.469L3.3,10.46a.853.853,0,0,0,.469,1.117l1.2.495a2,2,0,0,1,0,3.676l-1.211.5A.853.853,0,0,0,3.3,17.369l.648,1.578a.9.9,0,0,0,.461.461.853.853,0,0,0,.657,0l1.211-.5a1.979,1.979,0,0,1,.776-.2Zm6.823-.571a4.265,4.265,0,1,1,4.221-3.714,4.265,4.265,0,0,1-4.221,3.714Zm0-6.823a2.61,2.61,0,0,0-.981.2,2.557,2.557,0,1,0,1.962,0A2.456,2.456,0,0,0,13.872,11.313Z" transform="translate(-1.53 -1.53)" fill="#fff"/>
</svg>
