<svg xmlns="http://www.w3.org/2000/svg" width="132.926" height="148.27" viewBox="0 0 132.926 148.27">
  <g id="_288d3ac7f3bffe4c78ae761d703901bd" data-name=" 288d3ac7f3bffe4c78ae761d703901bd" transform="translate(-1232.935 -491.99)">
    <path id="Path_15560" data-name="Path 15560" d="M1280.009,637.944c26.616-12.079,51.12-6.587,63.964-12.4s36.405-25.417,9.632-84.4-66.925-51.209-81.032-44.808C1206.531,526.3,1232.881,659.33,1280.009,637.944Z" fill="#fff3c5"/>
    <g id="Group_11620" data-name="Group 11620">
      <path id="Path_15561" data-name="Path 15561" d="M1285.539,508.706l5.974-5.974,2.987,2.987-5.974,5.974Z" fill="#2f3c53"/>
      <path id="Path_15562" data-name="Path 15562" d="M1268.361,525.881l5.974-5.974,2.987,2.987-5.974,5.974Z" fill="#2f3c53"/>
      <path id="Path_15563" data-name="Path 15563" d="M1268.36,504.964l2.987-2.987,5.974,5.974-2.987,2.987Z" fill="#2f3c53"/>
      <path id="Path_15564" data-name="Path 15564" d="M1331.615,541.969a6.337,6.337,0,1,1,6.337-6.338A6.338,6.338,0,0,1,1331.615,541.969Zm0-8.45a2.113,2.113,0,1,0,2.112,2.112A2.112,2.112,0,0,0,1331.615,533.519Z" fill="#2f3c53"/>
    </g>
    <path id="Path_15565" data-name="Path 15565" d="M1275.632,604.373V563.165a2.842,2.842,0,0,1,.393-1.458l.845-1.483h-22.033a2.957,2.957,0,0,0-2.957,2.958h0v41.191a2.957,2.957,0,0,0,2.957,2.958h22.248v-.473A2.891,2.891,0,0,1,1275.632,604.373Z" fill="#d2bb67"/>
    <path id="Path_15566" data-name="Path 15566" d="M1335.041,554.352h-23.764V536.7a11.829,11.829,0,0,0-11.88-11.77h-8.911a2.957,2.957,0,0,0-2.957,2.957v13.942l-11.491,19.92a2.861,2.861,0,0,0-.393,1.458V604.4a2.957,2.957,0,0,0,2.957,2.957h47.681a11.884,11.884,0,0,0,10.854-6.992l9.531-21.238a2.837,2.837,0,0,0,.262-1.192V566.122a11.829,11.829,0,0,0-11.888-11.77Z" fill="#f3f3f1"/>
    <path id="Path_15567" data-name="Path 15567" d="M1261.373,604.373V563.165a2.958,2.958,0,0,1,2.958-2.958h-9.494a2.957,2.957,0,0,0-2.957,2.958h0v41.192a2.957,2.957,0,0,0,2.957,2.957h9.494A2.958,2.958,0,0,1,1261.373,604.373Z" fill="#82702c"/>
    <path id="Path_15568" data-name="Path 15568" d="M1285.138,604.373V563.165a2.842,2.842,0,0,1,.393-1.458l11.491-19.92V527.845a2.932,2.932,0,0,1,2.772-2.9c-.136,0-.262-.038-.4-.038h-8.911a2.957,2.957,0,0,0-2.957,2.957V541.8l-11.491,19.92a2.861,2.861,0,0,0-.393,1.458v41.191a2.957,2.957,0,0,0,2.957,2.958h9.506a2.958,2.958,0,0,1-2.958-2.932Z" fill="#d5dbe1"/>
    <path id="Path_15569" data-name="Path 15569" d="M1326.283,610.483H1278.6a6.131,6.131,0,0,1-6.139-6.11V563.165a6.086,6.086,0,0,1,.82-3.051l11.061-19.18v-13.1a6.131,6.131,0,0,1,6.138-6.076h8.915a15.006,15.006,0,0,1,15.048,14.939v14.487h20.6a15.007,15.007,0,0,1,15.053,14.935v11.77a5.913,5.913,0,0,1-.545,2.5l-9.522,21.217A15.046,15.046,0,0,1,1326.283,610.483Zm-35.8-82.384.2,13.7a3.116,3.116,0,0,1-.423,1.584l-11.491,19.92.034,41.069,47.478-.228a8.711,8.711,0,0,0,7.96-5.112l9.514-21.208v-11.7a8.665,8.665,0,0,0-8.711-8.6h-23.765a3.168,3.168,0,0,1-3.169-3.168h0V536.7a8.668,8.668,0,0,0-8.715-8.6Z" fill="#222939"/>
    <path id="Path_15570" data-name="Path 15570" d="M1277.085,610.483h-22.248a6.131,6.131,0,0,1-6.138-6.11V563.165a6.134,6.134,0,0,1,6.138-6.114h22.248v6.338h-22.248l.2,40.98,22.049-.224Z" fill="#222939"/>
  </g>
</svg>
